
<svg>
<!-- Antenne -->
<svg id="antenne" width="64px" height="64px"
xmlns="http://www.w3.org/2000/svg"  viewBox="0 0 64 64">
<path fill="#2E2F42" d="M61.55 44.2 44.66 27.19l1.87-9.24c.49.2 1 .3 1.52.3h.01a4.32 4.32 0 1 0-4.01-2.88l-9.92 1.22L17.95.32a1.07 1.07 0 0 0-1.5-.01l-3.03 3c-.42.42-.42 1.1 0 1.52l1.63 1.65a29.88 29.88 0 0 0 5.04 35.32c.08.09.18.15.29.2-.07.36-.1.73-.1 1.1v12.37H7.47a5.34 5.34 0 0 0-5.34 5.33v2.13c0 .6.48 1.07 1.07 1.07h49.06c.6 0 1.07-.48 1.07-1.07V60.8A5.34 5.34 0 0 0 48 55.47H35.2v-5.49a29.7 29.7 0 0 0 20.18-2.93l1.63 1.65c.2.2.47.32.75.32s.55-.11.75-.3l3.03-3.02c.41-.41.41-1.09 0-1.5ZM46.56 12.47a2.13 2.13 0 1 1 1.5 3.64 2.13 2.13 0 0 1-1.5-3.64Zm-2.51 7-1.2 5.9L40.5 23l3.55-3.52Zm-1.21-1.8L39 21.5l-2.97-2.99 6.8-.83ZM48 57.6a3.2 3.2 0 0 1 3.2 3.2v1.07H4.27V60.8a3.2 3.2 0 0 1 3.2-3.2h40.54Zm-14.94-4.27v2.14H22.41v-2.14h10.66ZM22.41 51.2v-8.1c0-2.6 2.4-4.7 5.33-4.7 2.94 0 5.33 2.1 5.33 4.7v8.1H22.41Zm12.8-3.4v-4.7c0-3.77-3.35-6.83-7.47-6.83a7.6 7.6 0 0 0-6.56 3.57 27.74 27.74 0 0 1-4.56-31.78l37.2 37.42a27.64 27.64 0 0 1-18.61 2.33Zm22.58-1.36-1.5-1.51-39.1-39.34-1.52-1.51 1.51-1.5 15.87 15.95.02.02L59.3 44.94l-1.51 1.5Z"/><path fill="#4D5AE5" d="M27.75 40.53a3.2 3.2 0 0 0-.02 6.4h.01a3.2 3.2 0 0 0 .01-6.4Zm.75 3.96a1.07 1.07 0 1 1-.76-1.82 1.07 1.07 0 0 1 .75 1.82Z"/></svg>

<!-- Clock -->
<svg id="clock" width="64px" height="64px" xmlns="http://www.w3.org/2000/svg"  viewBox="0 0 64 64">
  <g clip-path="url(#a)">
    <path fill="#2E2F42" d="M62.5933 30.6025C62.5899 13.6978 48.8828-.003417 31.9775 0 15.0728.00342 1.37158 13.7109 1.375 30.6157c.00293 13.3159 8.61377 25.1021 21.2988 29.1524.1211.0381.2471.0576.3736.0571.2412-.0005.4775-.0649.685-.1875.27-.1597.4717-.4136.5664-.7129l7.73-24.5c2.1133-.0107 3.8174-1.7329 3.8062-3.8457-.0108-2.1133-1.7325-3.8174-3.8457-3.8066-.5684.0024-1.1294.1333-1.6402.3828L20.1372 16.9419c-.5068-.4893-1.314-.4751-1.8032.0312-.4776.4947-.4776 1.2779 0 1.7725l10.2065 10.2183c-.7832 1.5986-.3354 3.5283 1.0728 4.6181L22.248 56.9277C7.69238 51.5659.239258 35.4199 5.60108 20.8643 10.9629 6.30859 27.1089-1.14453 41.6646 4.21729 56.2202 9.5791 63.6733 25.7256 58.3115 40.2808c-2.6196 7.1113-8.0019 12.8623-14.9243 15.9467l-.7959-3.7485c-.1455-.689-.8227-1.1294-1.5117-.9834-.2173.0464-.419.1485-.585.2964l-7.6738 6.8511c-.5264.4682-.5732 1.2744-.1045 1.8008.1524.1709.3477.2978.5664.3676l9.7974 3.127c.6704.2153 1.3887-.1533 1.604-.8242.0683-.2119.0796-.4375.0337-.6553l-.7822-3.6782c11.3286-4.7759 18.684-15.8843 18.6577-28.1783Zm-30.6089-1.2753c.7041 0 1.2754.5712 1.2754 1.2753 0 .7046-.5713 1.2754-1.2754 1.2754-.7046 0-1.2754-.5708-1.2754-1.2754 0-.7041.5708-1.2753 1.2754-1.2753Zm4.2007 29.728 4.3681-3.8965 1.2056 5.6807-5.5737-1.7842Z"/>
    <path fill="#4D5AE5" d="M30.709 6.37012V8.9209c0 .70459.5708 1.2754 1.2754 1.2754.7041 0 1.2754-.57081 1.2754-1.2754V6.37012c0-.7041-.5713-1.27539-1.2754-1.27539-.7046 0-1.2754.57129-1.2754 1.27539ZM7.75195 29.3271c-.70459 0-1.27539.5713-1.27539 1.2754 0 .7046.5708 1.2754 1.27539 1.2754h2.55075c.7046 0 1.2754-.5708 1.2754-1.2754 0-.7041-.5708-1.2754-1.2754-1.2754H7.75195Zm48.46425 2.5508c.7046 0 1.2754-.5708 1.2754-1.2754 0-.7041-.5708-1.2754-1.2754-1.2754h-2.5507c-.7041 0-1.2754.5713-1.2754 1.2754 0 .7046.5713 1.2754 1.2754 1.2754h2.5507Z"/>
  </g>
  <defs>
    <clipPath id="a">
      <path fill="#fff" d="M0 0h64v64H0z"/>
    </clipPath>
  </defs>
</svg>

<!-- Diagram -->
<svg id="diagram" width="64px" height="64px" xmlns="http://www.w3.org/2000/svg"  viewBox="0 0 64 64">
  <g clip-path="url(#a)">
    <path fill="#4D5AE5" d="M29.8511 29.9292h2.1322v9.595h-2.1322v-9.595Zm8.5288 4.2644h2.1322v5.3306h-2.1322v-5.3306ZM21.3221 37.392h2.1323v2.1322h-2.1323V37.392Zm-6.3966-1.0662h2.1323v3.1983h-2.1323v-3.1983Z"/>
    <path fill="#2E2F42" d="M3.19833 56.5819H54.3715c1.7663 0 3.1984-1.432 3.1984-3.1983v-4.2644c0-1.7663-1.4321-3.1983-3.1984-3.1983h-1.0661V19.3343l6.0557-5.7366c1.4055.6928 3.1067.2722 4.0265-.9974.9204-1.2691.7913-3.01666-.305-4.13691-1.0963-1.12025-2.8402-1.28735-4.1296-.39563-1.2889.89224-1.747 2.58354-1.0849 4.00414l-4.5627 4.3254v-2.4597c0-1.7663-1.432-3.1983-3.1983-3.1983H7.46276c-1.76626 0-3.19833 1.432-3.19833 3.1983v31.9833h-1.0661C1.43206 45.9209 0 47.3529 0 49.1192v4.2644c0 1.7663 1.43206 3.1983 3.19833 3.1983ZM60.7682 9.67317c.5887 0 1.0661.47733 1.0661 1.06613 0 .5887-.4774 1.0661-1.0661 1.0661-.5888 0-1.0661-.4774-1.0661-1.0661 0-.5888.4773-1.06613 1.0661-1.06613ZM6.39665 13.9376c0-.5887.47735-1.0661 1.06611-1.0661H50.1071c.5887 0 1.0661.4774 1.0661 1.0661v4.4773L49.041 20.441v-4.3712c0-.5887-.4774-1.0661-1.0661-1.0661H9.59498c-.58876 0-1.06611.4774-1.06611 1.0661v26.6527c0 .5888.47735 1.0661 1.06611 1.0661H47.9749c.5887 0 1.0661-.4773 1.0661-1.0661V23.3738l2.1322-2.0203v24.5674H6.39665V13.9376ZM15.9916 27.797c-1.4424-.0041-2.709.9568-3.0926 2.3472-.3837 1.3904.2103 2.8652 1.4508 3.6013 1.24.736 2.8199.5512 3.8563-.4519l3.7059 1.8595c.4305.2155.9526.1145 1.2727-.2452l7.8777-8.8626 7.7438 5.8027c.4154.3113.9954.278 1.3722-.0786l6.7304-6.3753v16.2623H10.6611V17.1359h36.2477v5.3207l-7.543 7.1431-7.8089-5.8542c-.4435-.3321-1.0677-.2697-1.4362.1442l-7.9859 8.9854-2.9855-1.493c.0219-.128.0354-.2571.0407-.3868 0-1.7662-1.4321-3.1983-3.1984-3.1983Zm1.0661 3.1983c0 .5888-.4773 1.0662-1.0661 1.0662-.5887 0-1.0661-.4774-1.0661-1.0662 0-.5887.4774-1.0661 1.0661-1.0661.5888 0 1.0661.4774 1.0661 1.0661Zm6.3967 17.0578h10.6611v1.0661c0 .5887-.4774 1.0661-1.0661 1.0661h-8.5289c-.5888 0-1.0661-.4774-1.0661-1.0661v-1.0661ZM2.13222 49.1192c0-.5888.47735-1.0661 1.06611-1.0661H21.3222v1.0661c0 1.7663 1.432 3.1983 3.1983 3.1983h8.5289c1.7662 0 3.1983-1.432 3.1983-3.1983v-1.0661h18.1238c.5888 0 1.0661.4773 1.0661 1.0661v4.2644c0 .5888-.4773 1.0661-1.0661 1.0661H3.19833c-.58876 0-1.06611-.4773-1.06611-1.0661v-4.2644Z"/>
  </g>
  <defs>
    <clipPath id="a">
      <path fill="#fff" d="M0 0h64v64H0z"/>
    </clipPath>
  </defs>
</svg>

<!-- Astronaut -->
<svg id="astronaut" width="64px" height="64px" xmlns="http://www.w3.org/2000/svg"  viewBox="0 0 64 64">
<path fill="#4D5AE5" d="M63.9481 9.04812c-.1259-.38513-.4587-.66663-.8608-.72538l-3.8208-.55576-1.7099-3.46243c-.3584-.72963-1.5541-.72963-1.9125 0l-1.7099 3.46243-3.821.55588c-.4021.05863-.7348.33926-.8618.72539-.1248.38613-.0214.81064.2698 1.09335l2.766 2.6956-.6528 3.8059c-.0683.4.096.8043.4235 1.0433.3318.2411.7648.2709 1.1243.081l3.4176-1.7974 3.4177 1.7974c.1558.0821.3275.1226.4971.1226.2208 0 .4417-.0682.6273-.2037.3285-.2389.4928-.6433.4235-1.0433l-.6527-3.8059 2.7659-2.6956c.2897-.28374.3944-.70725.2695-1.09338ZM59.0223 11.702c-.2507.2443-.3659.5984-.3062.9441l.3819 2.2282-2.001-1.0517c-.1558-.0822-.3264-.1227-.4972-.1227-.1706 0-.3402.0405-.4971.1227l-2.0011 1.0517.3818-2.2282c.0598-.3457-.0555-.6987-.3061-.9441l-1.6203-1.5786 2.2379-.32539c.3478-.05013.6475-.26875.8033-.58351l1.0005-2.02665 1.0005 2.02665c.1558.31463.4555.53338.8033.58351l2.2379.32539-1.6181 1.5786ZM52.267 41.0444h-2.1335v2.1334h2.1335v-2.1334Zm0 4.2668h-2.1335v2.1334h2.1335v-2.1334Zm2.1334-2.1334H52.267v2.1334h2.1334v-2.1334Z"/>
<path fill="#4D5AE5" d="M50.1337 43.1778h-2.1335v2.1334h2.1335v-2.1334Zm-5.3336 9.6002h-2.1334v2.1333h2.1334V52.778Zm0 4.2666h-2.1334v2.1335h2.1334v-2.1335Zm2.1335-2.1333h-2.1334v2.1335h2.1334v-2.1335Zm-4.2669 0h-2.1334v2.1335h2.1334v-2.1335ZM32 48.5113h-2.1334v2.1334H32v-2.1334Zm0 4.2667h-2.1334v2.1333H32V52.778Zm2.1334-2.1335H32v2.1334h2.1334v-2.1334Zm-4.2668 0h-2.1334v2.1334h2.1334v-2.1334ZM11.733 12.2439H9.59961v2.1334H11.733v-2.1334Zm0 4.2669H9.59961v2.1334H11.733v-2.1334Z"/>
<path fill="#4D5AE5" d="M13.8663 14.3774h-2.1334v2.1334h2.1334v-2.1334Zm-4.26671 0h-2.1334v2.1334h2.1334v-2.1334Z"/>
<path fill="#2E2F42" d="M49.4295 28.3189c-.5749-.7755-1.4186-1.2746-2.3765-1.4091-.9622-.1365-1.9116.1162-2.6796.704l-2.5035 1.9189-.0011.0011-3.7954 2.8342-2.7157-1.0816c4.8427-2.1728 8.2273-7.0166 8.2273-12.6402 0-7.646-6.2454-13.86687-13.9223-13.86687S15.7405 11.0002 15.7405 18.6462c0 2.7713.8287 5.3483 2.24 7.5168l-5.5276-.048h-.0096c-.0171 0-.0309.0085-.0469.0097-.1056.0042-.2091.0256-.3104.0618-.0256.0097-.0522.015-.0767.0267-.0128.0053-.0256.0063-.0384.0127l-6.46622 3.1926c-.00112 0-.00212 0-.00212.001l-3.78681 1.821c-.04163.0181-.08425.0426-.12588.0704C.08047 32.3156-.43366 34.289.3931 35.9018c.44051.8576 1.1904 1.4892 2.11204 1.7782.35525.1108.71788.1653 1.07839.1653.57926 0 1.15314-.1418 1.6789-.4223l2.77555-1.4763 4.52802-2.3382 2.7137-.016L4.39629 44.4237c-.001.0011-.00212.0011-.00325.0021l-2.67741 2.6667c-.63251.6294-.98027 1.4645-.98027 2.3553 0 .8896.34776 1.7269.98027 2.3574.64963.6464 1.50402.9706 2.35841.9706.85551 0 1.70877-.3242 2.36053-.9706l2.6283-2.6177 3.48163-2.5995 1.8017 1.7941-3.5233 3.5083c-.001.0012-.0021.0012-.0033.0022l-2.67737 2.6666c-.63251.6294-.98027 1.4645-.98027 2.3553 0 .8896.34776 1.7269.98027 2.3574.64963.6464 1.50515.9707 2.35957.9707.8544 0 1.7099-.3243 2.3605-.9707l2.6784-2.6667 4.2848-4.2666c.0012-.0012.0012-.0022.0022-.0033l2.0192-2-.0075-.0075c.0128-.0128.0309-.0172.0438-.0309l10.3319-11.3164 6.942.9877c.0501.0075.1002.0107.1504.0107.1291 0 .2538-.0309.3744-.0768.0352-.0127.0661-.0299.0992-.0469.0384-.0192.0789-.0298.1153-.0543l6.4267-4.2667c.0235-.016.0362-.0417.0586-.0587.0256-.0202.0576-.0287.081-.0512l2.5429-2.3819c1.3232-1.2398 1.5055-3.2707.4239-4.7235ZM4.26079 35.5403c-.34663.1856-.74026.2229-1.11677.1035-.37338-.1163-.67626-.3713-.85339-.7158-.32213-.6272-.1355-1.391.42876-1.8037l2.62729-1.2641.63251 1.8486.26563.7765-1.98403 1.055Zm6.99421-3.6554-3.09652 1.6-.51089-1.4934-.36688-1.0731 4.05349-2.0012-.0792 2.9677ZM41.4539 18.644c0 1.8368-.4384 3.5692-1.1979 5.119l-8.3628-3.7984c-.0875-1.1467-.6826-2.1504-1.5765-2.7756l2.928-9.72063c4.7554 1.51265 8.2092 5.94893 8.2092 11.17563Zm-23.5779 0c0-6.4694 5.2886-11.73351 11.7889-11.73351.5057 0 1.0006.04262 1.4902.1045L28.291 16.5224c-.0383-.0011-.0746-.0118-.1141-.0118-2.0651 0-3.7452 1.6747-3.7452 3.7335 0 2.0586 1.6801 3.7334 3.7452 3.7334 1.3888 0 2.5888-.7669 3.2363-1.8892l7.7249 3.5095c-2.1494 2.8928-5.5895 4.7798-9.4733 4.7798-6.5002 0-11.7888-5.2641-11.7888-11.7336Zm11.9127 1.6001c0 .8821-.7233 1.6-1.6118 1.6-.8885 0-1.6118-.7179-1.6118-1.6 0-.8822.7233-1.6001 1.6118-1.6001.8885 0 1.6118.7179 1.6118 1.6001ZM4.92968 50.2925c-.47251.4683-1.2374.4673-1.70878.0011-.22725-.2272-.35201-.5268-.35201-.8458 0-.3179.12476-.6177.35201-.8427l1.92415-1.9169 1.70241 1.695-1.91778 1.9093Zm6.42772 7.4669c-.4725.4682-1.2384.4694-1.7099.0011-.22725-.2272-.35201-.5269-.35201-.8459 0-.3179.12476-.6176.35201-.8426l1.9254-1.9179.8054.8011.8981.8939-1.919 1.9103Zm6.9634-6.9377c-.0012.001-.0022.001-.0033.0021l-3.5297 3.52-.8054-.8011-.8981-.8939 3.5264-3.5104v-.001c.0012-.0011.0022-.0011.0033-.0021.08-.08.1301-.176.1792-.2709.0139-.0278.0405-.0513.0523-.08.0331-.0821.0384-.1706.0512-.2572.0064-.0491.0278-.0948.0278-.1451 0-.0715-.0256-.1407-.0405-.2112-.0128-.064-.0128-.1292-.0374-.1909-.0405-.1003-.1099-.1888-.1824-.2753-.0202-.0235-.0277-.0533-.0501-.0757h-.0011c-.0011-.001-.0011-.0033-.0021-.0043l-3.214-3.2c-.0341-.0341-.0778-.048-.1162-.0768-.0565-.0437-.1109-.0842-.1739-.1152-.0607-.0299-.1226-.048-.1866-.0651-.0683-.0193-.1344-.0342-.2059-.0395-.0651-.0043-.1259.0021-.1909.0096-.0715.0085-.1386.0181-.208.0405-.0672.0214-.1269.0544-.1887.0896-.0395.0224-.0843.0299-.1217.0576L8.45836 46.973 6.6567 45.1788l4.798-4.7723 8.7212 8.5773-1.8551 1.8379Zm13.6376-14.0334c-.0309-.0042-.0598.0075-.0907.0054-.0779-.0043-.1525.0011-.2304.0139-.0607.0106-.1183.0223-.176.0426-.0682.0235-.1301.0555-.1931.0939-.0597.0362-.1141.0746-.1664.1226-.0256.0224-.0565.0331-.08.0586l-9.3965 10.2914-8.6561-8.5132 5.6662-5.6364c.4171-.416.4192-1.0912.0032-1.5094-.2101-.2101-.4863-.3136-.7626-.3125v-.001l-4.4374.0267.0555-3.215 6.2081.0534c2.5301 2.5878 6.0587 4.2017 9.9627 4.2017.8747 0 1.7281-.0906 2.559-.2454.08.064.1588.1292.2592.1697l4.8193 1.92.305 1.5168.3563 1.7706-6.0053-.8544Zm8.0822.3563-.6261-3.1158 2.8928-2.1601.7574 1.0048 1.136 1.5083-4.1601 2.7628Zm7.5072-5.662-1.6757 1.5702-1.8624-2.4726 1.6629-1.2746c.3103-.2389.7019-.336 1.0859-.2859.3861.0544.7275.256.96.5685.4331.5835.3595 1.3974-.1707 1.8944Z"/><path fill="#2E2F42" d="m27.2041 37.0881-4.2859-4.2667c-.4149-.4149-1.0892-.4149-1.5052 0l-4.2848 4.2667c-.2005.2016-.3136.4725-.3136.7562 0 .2838.112.5558.3136.7563l4.2848 4.2667c.208.2069.4812.3104.7532.3104.272 0 .545-.1035.752-.3104l4.2859-4.2667c.2005-.2005.3146-.4725.3146-.7563 0-.2837-.1131-.5557-.3146-.7562Zm-5.0379 3.5179-2.7735-2.7617 2.7735-2.7616 2.7744 2.7616-2.7744 2.7617Zm12.1623-30.4645-.5153 2.0716c.1419.0352 3.4753.9035 3.4753 4.2977h2.1334c-.0001-4.0343-3.3313-5.9309-5.0934-6.3693Zm5.0935 8.5025h-2.1334v2.1335h2.1334V18.644Z"/>
</svg>

<svg  xmlns="http://www.w3.org/2000/svg"  viewBox="0 0 64 64"><path fill="#4D5AE5" d="M63.9481 9.04812c-.1259-.38513-.4587-.66663-.8608-.72538l-3.8208-.55576-1.7099-3.46243c-.3584-.72963-1.5541-.72963-1.9125 0l-1.7099 3.46243-3.821.55588c-.4021.05863-.7348.33926-.8618.72539-.1248.38613-.0214.81064.2698 1.09335l2.766 2.6956-.6528 3.8059c-.0683.4.096.8043.4235 1.0433.3318.2411.7648.2709 1.1243.081l3.4176-1.7974 3.4177 1.7974c.1558.0821.3275.1226.4971.1226.2208 0 .4417-.0682.6273-.2037.3285-.2389.4928-.6433.4235-1.0433l-.6527-3.8059 2.7659-2.6956c.2897-.28374.3944-.70725.2695-1.09338ZM59.0223 11.702c-.2507.2443-.3659.5984-.3062.9441l.3819 2.2282-2.001-1.0517c-.1558-.0822-.3264-.1227-.4972-.1227-.1706 0-.3402.0405-.4971.1227l-2.0011 1.0517.3818-2.2282c.0598-.3457-.0555-.6987-.3061-.9441l-1.6203-1.5786 2.2379-.32539c.3478-.05013.6475-.26875.8033-.58351l1.0005-2.02665 1.0005 2.02665c.1558.31463.4555.53338.8033.58351l2.2379.32539-1.6181 1.5786ZM52.267 41.0444h-2.1335v2.1334h2.1335v-2.1334Zm0 4.2668h-2.1335v2.1334h2.1335v-2.1334Zm2.1334-2.1334H52.267v2.1334h2.1334v-2.1334Z"/><path fill="#4D5AE5" d="M50.1337 43.1778h-2.1335v2.1334h2.1335v-2.1334Zm-5.3336 9.6002h-2.1334v2.1333h2.1334V52.778Zm0 4.2666h-2.1334v2.1335h2.1334v-2.1335Zm2.1335-2.1333h-2.1334v2.1335h2.1334v-2.1335Zm-4.2669 0h-2.1334v2.1335h2.1334v-2.1335ZM32 48.5113h-2.1334v2.1334H32v-2.1334Zm0 4.2667h-2.1334v2.1333H32V52.778Zm2.1334-2.1335H32v2.1334h2.1334v-2.1334Zm-4.2668 0h-2.1334v2.1334h2.1334v-2.1334ZM11.733 12.2439H9.59961v2.1334H11.733v-2.1334Zm0 4.2669H9.59961v2.1334H11.733v-2.1334Z"/><path fill="#4D5AE5" d="M13.8663 14.3774h-2.1334v2.1334h2.1334v-2.1334Zm-4.26671 0h-2.1334v2.1334h2.1334v-2.1334Z"/><path fill="#2E2F42" d="M49.4295 28.3189c-.5749-.7755-1.4186-1.2746-2.3765-1.4091-.9622-.1365-1.9116.1162-2.6796.704l-2.5035 1.9189-.0011.0011-3.7954 2.8342-2.7157-1.0816c4.8427-2.1728 8.2273-7.0166 8.2273-12.6402 0-7.646-6.2454-13.86687-13.9223-13.86687S15.7405 11.0002 15.7405 18.6462c0 2.7713.8287 5.3483 2.24 7.5168l-5.5276-.048h-.0096c-.0171 0-.0309.0085-.0469.0097-.1056.0042-.2091.0256-.3104.0618-.0256.0097-.0522.015-.0767.0267-.0128.0053-.0256.0063-.0384.0127l-6.46622 3.1926c-.00112 0-.00212 0-.00212.001l-3.78681 1.821c-.04163.0181-.08425.0426-.12588.0704C.08047 32.3156-.43366 34.289.3931 35.9018c.44051.8576 1.1904 1.4892 2.11204 1.7782.35525.1108.71788.1653 1.07839.1653.57926 0 1.15314-.1418 1.6789-.4223l2.77555-1.4763 4.52802-2.3382 2.7137-.016L4.39629 44.4237c-.001.0011-.00212.0011-.00325.0021l-2.67741 2.6667c-.63251.6294-.98027 1.4645-.98027 2.3553 0 .8896.34776 1.7269.98027 2.3574.64963.6464 1.50402.9706 2.35841.9706.85551 0 1.70877-.3242 2.36053-.9706l2.6283-2.6177 3.48163-2.5995 1.8017 1.7941-3.5233 3.5083c-.001.0012-.0021.0012-.0033.0022l-2.67737 2.6666c-.63251.6294-.98027 1.4645-.98027 2.3553 0 .8896.34776 1.7269.98027 2.3574.64963.6464 1.50515.9707 2.35957.9707.8544 0 1.7099-.3243 2.3605-.9707l2.6784-2.6667 4.2848-4.2666c.0012-.0012.0012-.0022.0022-.0033l2.0192-2-.0075-.0075c.0128-.0128.0309-.0172.0438-.0309l10.3319-11.3164 6.942.9877c.0501.0075.1002.0107.1504.0107.1291 0 .2538-.0309.3744-.0768.0352-.0127.0661-.0299.0992-.0469.0384-.0192.0789-.0298.1153-.0543l6.4267-4.2667c.0235-.016.0362-.0417.0586-.0587.0256-.0202.0576-.0287.081-.0512l2.5429-2.3819c1.3232-1.2398 1.5055-3.2707.4239-4.7235ZM4.26079 35.5403c-.34663.1856-.74026.2229-1.11677.1035-.37338-.1163-.67626-.3713-.85339-.7158-.32213-.6272-.1355-1.391.42876-1.8037l2.62729-1.2641.63251 1.8486.26563.7765-1.98403 1.055Zm6.99421-3.6554-3.09652 1.6-.51089-1.4934-.36688-1.0731 4.05349-2.0012-.0792 2.9677ZM41.4539 18.644c0 1.8368-.4384 3.5692-1.1979 5.119l-8.3628-3.7984c-.0875-1.1467-.6826-2.1504-1.5765-2.7756l2.928-9.72063c4.7554 1.51265 8.2092 5.94893 8.2092 11.17563Zm-23.5779 0c0-6.4694 5.2886-11.73351 11.7889-11.73351.5057 0 1.0006.04262 1.4902.1045L28.291 16.5224c-.0383-.0011-.0746-.0118-.1141-.0118-2.0651 0-3.7452 1.6747-3.7452 3.7335 0 2.0586 1.6801 3.7334 3.7452 3.7334 1.3888 0 2.5888-.7669 3.2363-1.8892l7.7249 3.5095c-2.1494 2.8928-5.5895 4.7798-9.4733 4.7798-6.5002 0-11.7888-5.2641-11.7888-11.7336Zm11.9127 1.6001c0 .8821-.7233 1.6-1.6118 1.6-.8885 0-1.6118-.7179-1.6118-1.6 0-.8822.7233-1.6001 1.6118-1.6001.8885 0 1.6118.7179 1.6118 1.6001ZM4.92968 50.2925c-.47251.4683-1.2374.4673-1.70878.0011-.22725-.2272-.35201-.5268-.35201-.8458 0-.3179.12476-.6177.35201-.8427l1.92415-1.9169 1.70241 1.695-1.91778 1.9093Zm6.42772 7.4669c-.4725.4682-1.2384.4694-1.7099.0011-.22725-.2272-.35201-.5269-.35201-.8459 0-.3179.12476-.6176.35201-.8426l1.9254-1.9179.8054.8011.8981.8939-1.919 1.9103Zm6.9634-6.9377c-.0012.001-.0022.001-.0033.0021l-3.5297 3.52-.8054-.8011-.8981-.8939 3.5264-3.5104v-.001c.0012-.0011.0022-.0011.0033-.0021.08-.08.1301-.176.1792-.2709.0139-.0278.0405-.0513.0523-.08.0331-.0821.0384-.1706.0512-.2572.0064-.0491.0278-.0948.0278-.1451 0-.0715-.0256-.1407-.0405-.2112-.0128-.064-.0128-.1292-.0374-.1909-.0405-.1003-.1099-.1888-.1824-.2753-.0202-.0235-.0277-.0533-.0501-.0757h-.0011c-.0011-.001-.0011-.0033-.0021-.0043l-3.214-3.2c-.0341-.0341-.0778-.048-.1162-.0768-.0565-.0437-.1109-.0842-.1739-.1152-.0607-.0299-.1226-.048-.1866-.0651-.0683-.0193-.1344-.0342-.2059-.0395-.0651-.0043-.1259.0021-.1909.0096-.0715.0085-.1386.0181-.208.0405-.0672.0214-.1269.0544-.1887.0896-.0395.0224-.0843.0299-.1217.0576L8.45836 46.973 6.6567 45.1788l4.798-4.7723 8.7212 8.5773-1.8551 1.8379Zm13.6376-14.0334c-.0309-.0042-.0598.0075-.0907.0054-.0779-.0043-.1525.0011-.2304.0139-.0607.0106-.1183.0223-.176.0426-.0682.0235-.1301.0555-.1931.0939-.0597.0362-.1141.0746-.1664.1226-.0256.0224-.0565.0331-.08.0586l-9.3965 10.2914-8.6561-8.5132 5.6662-5.6364c.4171-.416.4192-1.0912.0032-1.5094-.2101-.2101-.4863-.3136-.7626-.3125v-.001l-4.4374.0267.0555-3.215 6.2081.0534c2.5301 2.5878 6.0587 4.2017 9.9627 4.2017.8747 0 1.7281-.0906 2.559-.2454.08.064.1588.1292.2592.1697l4.8193 1.92.305 1.5168.3563 1.7706-6.0053-.8544Zm8.0822.3563-.6261-3.1158 2.8928-2.1601.7574 1.0048 1.136 1.5083-4.1601 2.7628Zm7.5072-5.662-1.6757 1.5702-1.8624-2.4726 1.6629-1.2746c.3103-.2389.7019-.336 1.0859-.2859.3861.0544.7275.256.96.5685.4331.5835.3595 1.3974-.1707 1.8944Z"/><path fill="#2E2F42" d="m27.2041 37.0881-4.2859-4.2667c-.4149-.4149-1.0892-.4149-1.5052 0l-4.2848 4.2667c-.2005.2016-.3136.4725-.3136.7562 0 .2838.112.5558.3136.7563l4.2848 4.2667c.208.2069.4812.3104.7532.3104.272 0 .545-.1035.752-.3104l4.2859-4.2667c.2005-.2005.3146-.4725.3146-.7563 0-.2837-.1131-.5557-.3146-.7562Zm-5.0379 3.5179-2.7735-2.7617 2.7735-2.7616 2.7744 2.7616-2.7744 2.7617Zm12.1623-30.4645-.5153 2.0716c.1419.0352 3.4753.9035 3.4753 4.2977h2.1334c-.0001-4.0343-3.3313-5.9309-5.0934-6.3693Zm5.0935 8.5025h-2.1334v2.1335h2.1334V18.644Z"/>



</svg>
