
<svg>
<!-- Antenne -->
<svg id="antenne" width="64px" height="64px"
xmlns="http://www.w3.org/2000/svg"  viewBox="0 0 64 64">
<path fill="#2E2F42" d="M61.55 44.2 44.66 27.19l1.87-9.24c.49.2 1 .3 1.52.3h.01a4.32 4.32 0 1 0-4.01-2.88l-9.92 1.22L17.95.32a1.07 1.07 0 0 0-1.5-.01l-3.03 3c-.42.42-.42 1.1 0 1.52l1.63 1.65a29.88 29.88 0 0 0 5.04 35.32c.08.09.18.15.29.2-.07.36-.1.73-.1 1.1v12.37H7.47a5.34 5.34 0 0 0-5.34 5.33v2.13c0 .6.48 1.07 1.07 1.07h49.06c.6 0 1.07-.48 1.07-1.07V60.8A5.34 5.34 0 0 0 48 55.47H35.2v-5.49a29.7 29.7 0 0 0 20.18-2.93l1.63 1.65c.2.2.47.32.75.32s.55-.11.75-.3l3.03-3.02c.41-.41.41-1.09 0-1.5ZM46.56 12.47a2.13 2.13 0 1 1 1.5 3.64 2.13 2.13 0 0 1-1.5-3.64Zm-2.51 7-1.2 5.9L40.5 23l3.55-3.52Zm-1.21-1.8L39 21.5l-2.97-2.99 6.8-.83ZM48 57.6a3.2 3.2 0 0 1 3.2 3.2v1.07H4.27V60.8a3.2 3.2 0 0 1 3.2-3.2h40.54Zm-14.94-4.27v2.14H22.41v-2.14h10.66ZM22.41 51.2v-8.1c0-2.6 2.4-4.7 5.33-4.7 2.94 0 5.33 2.1 5.33 4.7v8.1H22.41Zm12.8-3.4v-4.7c0-3.77-3.35-6.83-7.47-6.83a7.6 7.6 0 0 0-6.56 3.57 27.74 27.74 0 0 1-4.56-31.78l37.2 37.42a27.64 27.64 0 0 1-18.61 2.33Zm22.58-1.36-1.5-1.51-39.1-39.34-1.52-1.51 1.51-1.5 15.87 15.95.02.02L59.3 44.94l-1.51 1.5Z"/><path fill="#4D5AE5" d="M27.75 40.53a3.2 3.2 0 0 0-.02 6.4h.01a3.2 3.2 0 0 0 .01-6.4Zm.75 3.96a1.07 1.07 0 1 1-.76-1.82 1.07 1.07 0 0 1 .75 1.82Z"/></svg>

<!-- Clock -->
<svg id="clock" width="64px" height="64px" xmlns="http://www.w3.org/2000/svg"  viewBox="0 0 64 64">
  <g clip-path="url(#a)">
    <path fill="#2E2F42" d="M62.5933 30.6025C62.5899 13.6978 48.8828-.003417 31.9775 0 15.0728.00342 1.37158 13.7109 1.375 30.6157c.00293 13.3159 8.61377 25.1021 21.2988 29.1524.1211.0381.2471.0576.3736.0571.2412-.0005.4775-.0649.685-.1875.27-.1597.4717-.4136.5664-.7129l7.73-24.5c2.1133-.0107 3.8174-1.7329 3.8062-3.8457-.0108-2.1133-1.7325-3.8174-3.8457-3.8066-.5684.0024-1.1294.1333-1.6402.3828L20.1372 16.9419c-.5068-.4893-1.314-.4751-1.8032.0312-.4776.4947-.4776 1.2779 0 1.7725l10.2065 10.2183c-.7832 1.5986-.3354 3.5283 1.0728 4.6181L22.248 56.9277C7.69238 51.5659.239258 35.4199 5.60108 20.8643 10.9629 6.30859 27.1089-1.14453 41.6646 4.21729 56.2202 9.5791 63.6733 25.7256 58.3115 40.2808c-2.6196 7.1113-8.0019 12.8623-14.9243 15.9467l-.7959-3.7485c-.1455-.689-.8227-1.1294-1.5117-.9834-.2173.0464-.419.1485-.585.2964l-7.6738 6.8511c-.5264.4682-.5732 1.2744-.1045 1.8008.1524.1709.3477.2978.5664.3676l9.7974 3.127c.6704.2153 1.3887-.1533 1.604-.8242.0683-.2119.0796-.4375.0337-.6553l-.7822-3.6782c11.3286-4.7759 18.684-15.8843 18.6577-28.1783Zm-30.6089-1.2753c.7041 0 1.2754.5712 1.2754 1.2753 0 .7046-.5713 1.2754-1.2754 1.2754-.7046 0-1.2754-.5708-1.2754-1.2754 0-.7041.5708-1.2753 1.2754-1.2753Zm4.2007 29.728 4.3681-3.8965 1.2056 5.6807-5.5737-1.7842Z"/>
    <path fill="#4D5AE5" d="M30.709 6.37012V8.9209c0 .70459.5708 1.2754 1.2754 1.2754.7041 0 1.2754-.57081 1.2754-1.2754V6.37012c0-.7041-.5713-1.27539-1.2754-1.27539-.7046 0-1.2754.57129-1.2754 1.27539ZM7.75195 29.3271c-.70459 0-1.27539.5713-1.27539 1.2754 0 .7046.5708 1.2754 1.27539 1.2754h2.55075c.7046 0 1.2754-.5708 1.2754-1.2754 0-.7041-.5708-1.2754-1.2754-1.2754H7.75195Zm48.46425 2.5508c.7046 0 1.2754-.5708 1.2754-1.2754 0-.7041-.5708-1.2754-1.2754-1.2754h-2.5507c-.7041 0-1.2754.5713-1.2754 1.2754 0 .7046.5713 1.2754 1.2754 1.2754h2.5507Z"/>
  </g>
  <defs>
    <clipPath id="a">
      <path fill="#fff" d="M0 0h64v64H0z"/>
    </clipPath>
  </defs>
</svg>

<!-- Diagram -->
<svg id="diagram" width="64px" height="64px" xmlns="http://www.w3.org/2000/svg"  viewBox="0 0 64 64">
  <g clip-path="url(#a)">
    <path fill="#4D5AE5" d="M29.8511 29.9292h2.1322v9.595h-2.1322v-9.595Zm8.5288 4.2644h2.1322v5.3306h-2.1322v-5.3306ZM21.3221 37.392h2.1323v2.1322h-2.1323V37.392Zm-6.3966-1.0662h2.1323v3.1983h-2.1323v-3.1983Z"/>
    <path fill="#2E2F42" d="M3.19833 56.5819H54.3715c1.7663 0 3.1984-1.432 3.1984-3.1983v-4.2644c0-1.7663-1.4321-3.1983-3.1984-3.1983h-1.0661V19.3343l6.0557-5.7366c1.4055.6928 3.1067.2722 4.0265-.9974.9204-1.2691.7913-3.01666-.305-4.13691-1.0963-1.12025-2.8402-1.28735-4.1296-.39563-1.2889.89224-1.747 2.58354-1.0849 4.00414l-4.5627 4.3254v-2.4597c0-1.7663-1.432-3.1983-3.1983-3.1983H7.46276c-1.76626 0-3.19833 1.432-3.19833 3.1983v31.9833h-1.0661C1.43206 45.9209 0 47.3529 0 49.1192v4.2644c0 1.7663 1.43206 3.1983 3.19833 3.1983ZM60.7682 9.67317c.5887 0 1.0661.47733 1.0661 1.06613 0 .5887-.4774 1.0661-1.0661 1.0661-.5888 0-1.0661-.4774-1.0661-1.0661 0-.5888.4773-1.06613 1.0661-1.06613ZM6.39665 13.9376c0-.5887.47735-1.0661 1.06611-1.0661H50.1071c.5887 0 1.0661.4774 1.0661 1.0661v4.4773L49.041 20.441v-4.3712c0-.5887-.4774-1.0661-1.0661-1.0661H9.59498c-.58876 0-1.06611.4774-1.06611 1.0661v26.6527c0 .5888.47735 1.0661 1.06611 1.0661H47.9749c.5887 0 1.0661-.4773 1.0661-1.0661V23.3738l2.1322-2.0203v24.5674H6.39665V13.9376ZM15.9916 27.797c-1.4424-.0041-2.709.9568-3.0926 2.3472-.3837 1.3904.2103 2.8652 1.4508 3.6013 1.24.736 2.8199.5512 3.8563-.4519l3.7059 1.8595c.4305.2155.9526.1145 1.2727-.2452l7.8777-8.8626 7.7438 5.8027c.4154.3113.9954.278 1.3722-.0786l6.7304-6.3753v16.2623H10.6611V17.1359h36.2477v5.3207l-7.543 7.1431-7.8089-5.8542c-.4435-.3321-1.0677-.2697-1.4362.1442l-7.9859 8.9854-2.9855-1.493c.0219-.128.0354-.2571.0407-.3868 0-1.7662-1.4321-3.1983-3.1984-3.1983Zm1.0661 3.1983c0 .5888-.4773 1.0662-1.0661 1.0662-.5887 0-1.0661-.4774-1.0661-1.0662 0-.5887.4774-1.0661 1.0661-1.0661.5888 0 1.0661.4774 1.0661 1.0661Zm6.3967 17.0578h10.6611v1.0661c0 .5887-.4774 1.0661-1.0661 1.0661h-8.5289c-.5888 0-1.0661-.4774-1.0661-1.0661v-1.0661ZM2.13222 49.1192c0-.5888.47735-1.0661 1.06611-1.0661H21.3222v1.0661c0 1.7663 1.432 3.1983 3.1983 3.1983h8.5289c1.7662 0 3.1983-1.432 3.1983-3.1983v-1.0661h18.1238c.5888 0 1.0661.4773 1.0661 1.0661v4.2644c0 .5888-.4773 1.0661-1.0661 1.0661H3.19833c-.58876 0-1.06611-.4773-1.06611-1.0661v-4.2644Z"/>
  </g>
  <defs>
    <clipPath id="a">
      <path fill="#fff" d="M0 0h64v64H0z"/>
    </clipPath>
  </defs>
</svg>

<!-- Astronaut -->
<svg id="astronaut" width="64px" height="64px" xmlns="http://www.w3.org/2000/svg"  viewBox="0 0 64 64">
<path fill="#4D5AE5" d="M63.9481 9.04812c-.1259-.38513-.4587-.66663-.8608-.72538l-3.8208-.55576-1.7099-3.46243c-.3584-.72963-1.5541-.72963-1.9125 0l-1.7099 3.46243-3.821.55588c-.4021.05863-.7348.33926-.8618.72539-.1248.38613-.0214.81064.2698 1.09335l2.766 2.6956-.6528 3.8059c-.0683.4.096.8043.4235 1.0433.3318.2411.7648.2709 1.1243.081l3.4176-1.7974 3.4177 1.7974c.1558.0821.3275.1226.4971.1226.2208 0 .4417-.0682.6273-.2037.3285-.2389.4928-.6433.4235-1.0433l-.6527-3.8059 2.7659-2.6956c.2897-.28374.3944-.70725.2695-1.09338ZM59.0223 11.702c-.2507.2443-.3659.5984-.3062.9441l.3819 2.2282-2.001-1.0517c-.1558-.0822-.3264-.1227-.4972-.1227-.1706 0-.3402.0405-.4971.1227l-2.0011 1.0517.3818-2.2282c.0598-.3457-.0555-.6987-.3061-.9441l-1.6203-1.5786 2.2379-.32539c.3478-.05013.6475-.26875.8033-.58351l1.0005-2.02665 1.0005 2.02665c.1558.31463.4555.53338.8033.58351l2.2379.32539-1.6181 1.5786ZM52.267 41.0444h-2.1335v2.1334h2.1335v-2.1334Zm0 4.2668h-2.1335v2.1334h2.1335v-2.1334Zm2.1334-2.1334H52.267v2.1334h2.1334v-2.1334Z"/>
<path fill="#4D5AE5" d="M50.1337 43.1778h-2.1335v2.1334h2.1335v-2.1334Zm-5.3336 9.6002h-2.1334v2.1333h2.1334V52.778Zm0 4.2666h-2.1334v2.1335h2.1334v-2.1335Zm2.1335-2.1333h-2.1334v2.1335h2.1334v-2.1335Zm-4.2669 0h-2.1334v2.1335h2.1334v-2.1335ZM32 48.5113h-2.1334v2.1334H32v-2.1334Zm0 4.2667h-2.1334v2.1333H32V52.778Zm2.1334-2.1335H32v2.1334h2.1334v-2.1334Zm-4.2668 0h-2.1334v2.1334h2.1334v-2.1334ZM11.733 12.2439H9.59961v2.1334H11.733v-2.1334Zm0 4.2669H9.59961v2.1334H11.733v-2.1334Z"/>
<path fill="#4D5AE5" d="M13.8663 14.3774h-2.1334v2.1334h2.1334v-2.1334Zm-4.26671 0h-2.1334v2.1334h2.1334v-2.1334Z"/>
<path fill="#2E2F42" d="M49.4295 28.3189c-.5749-.7755-1.4186-1.2746-2.3765-1.4091-.9622-.1365-1.9116.1162-2.6796.704l-2.5035 1.9189-.0011.0011-3.7954 2.8342-2.7157-1.0816c4.8427-2.1728 8.2273-7.0166 8.2273-12.6402 0-7.646-6.2454-13.86687-13.9223-13.86687S15.7405 11.0002 15.7405 18.6462c0 2.7713.8287 5.3483 2.24 7.5168l-5.5276-.048h-.0096c-.0171 0-.0309.0085-.0469.0097-.1056.0042-.2091.0256-.3104.0618-.0256.0097-.0522.015-.0767.0267-.0128.0053-.0256.0063-.0384.0127l-6.46622 3.1926c-.00112 0-.00212 0-.00212.001l-3.78681 1.821c-.04163.0181-.08425.0426-.12588.0704C.08047 32.3156-.43366 34.289.3931 35.9018c.44051.8576 1.1904 1.4892 2.11204 1.7782.35525.1108.71788.1653 1.07839.1653.57926 0 1.15314-.1418 1.6789-.4223l2.77555-1.4763 4.52802-2.3382 2.7137-.016L4.39629 44.4237c-.001.0011-.00212.0011-.00325.0021l-2.67741 2.6667c-.63251.6294-.98027 1.4645-.98027 2.3553 0 .8896.34776 1.7269.98027 2.3574.64963.6464 1.50402.9706 2.35841.9706.85551 0 1.70877-.3242 2.36053-.9706l2.6283-2.6177 3.48163-2.5995 1.8017 1.7941-3.5233 3.5083c-.001.0012-.0021.0012-.0033.0022l-2.67737 2.6666c-.63251.6294-.98027 1.4645-.98027 2.3553 0 .8896.34776 1.7269.98027 2.3574.64963.6464 1.50515.9707 2.35957.9707.8544 0 1.7099-.3243 2.3605-.9707l2.6784-2.6667 4.2848-4.2666c.0012-.0012.0012-.0022.0022-.0033l2.0192-2-.0075-.0075c.0128-.0128.0309-.0172.0438-.0309l10.3319-11.3164 6.942.9877c.0501.0075.1002.0107.1504.0107.1291 0 .2538-.0309.3744-.0768.0352-.0127.0661-.0299.0992-.0469.0384-.0192.0789-.0298.1153-.0543l6.4267-4.2667c.0235-.016.0362-.0417.0586-.0587.0256-.0202.0576-.0287.081-.0512l2.5429-2.3819c1.3232-1.2398 1.5055-3.2707.4239-4.7235ZM4.26079 35.5403c-.34663.1856-.74026.2229-1.11677.1035-.37338-.1163-.67626-.3713-.85339-.7158-.32213-.6272-.1355-1.391.42876-1.8037l2.62729-1.2641.63251 1.8486.26563.7765-1.98403 1.055Zm6.99421-3.6554-3.09652 1.6-.51089-1.4934-.36688-1.0731 4.05349-2.0012-.0792 2.9677ZM41.4539 18.644c0 1.8368-.4384 3.5692-1.1979 5.119l-8.3628-3.7984c-.0875-1.1467-.6826-2.1504-1.5765-2.7756l2.928-9.72063c4.7554 1.51265 8.2092 5.94893 8.2092 11.17563Zm-23.5779 0c0-6.4694 5.2886-11.73351 11.7889-11.73351.5057 0 1.0006.04262 1.4902.1045L28.291 16.5224c-.0383-.0011-.0746-.0118-.1141-.0118-2.0651 0-3.7452 1.6747-3.7452 3.7335 0 2.0586 1.6801 3.7334 3.7452 3.7334 1.3888 0 2.5888-.7669 3.2363-1.8892l7.7249 3.5095c-2.1494 2.8928-5.5895 4.7798-9.4733 4.7798-6.5002 0-11.7888-5.2641-11.7888-11.7336Zm11.9127 1.6001c0 .8821-.7233 1.6-1.6118 1.6-.8885 0-1.6118-.7179-1.6118-1.6 0-.8822.7233-1.6001 1.6118-1.6001.8885 0 1.6118.7179 1.6118 1.6001ZM4.92968 50.2925c-.47251.4683-1.2374.4673-1.70878.0011-.22725-.2272-.35201-.5268-.35201-.8458 0-.3179.12476-.6177.35201-.8427l1.92415-1.9169 1.70241 1.695-1.91778 1.9093Zm6.42772 7.4669c-.4725.4682-1.2384.4694-1.7099.0011-.22725-.2272-.35201-.5269-.35201-.8459 0-.3179.12476-.6176.35201-.8426l1.9254-1.9179.8054.8011.8981.8939-1.919 1.9103Zm6.9634-6.9377c-.0012.001-.0022.001-.0033.0021l-3.5297 3.52-.8054-.8011-.8981-.8939 3.5264-3.5104v-.001c.0012-.0011.0022-.0011.0033-.0021.08-.08.1301-.176.1792-.2709.0139-.0278.0405-.0513.0523-.08.0331-.0821.0384-.1706.0512-.2572.0064-.0491.0278-.0948.0278-.1451 0-.0715-.0256-.1407-.0405-.2112-.0128-.064-.0128-.1292-.0374-.1909-.0405-.1003-.1099-.1888-.1824-.2753-.0202-.0235-.0277-.0533-.0501-.0757h-.0011c-.0011-.001-.0011-.0033-.0021-.0043l-3.214-3.2c-.0341-.0341-.0778-.048-.1162-.0768-.0565-.0437-.1109-.0842-.1739-.1152-.0607-.0299-.1226-.048-.1866-.0651-.0683-.0193-.1344-.0342-.2059-.0395-.0651-.0043-.1259.0021-.1909.0096-.0715.0085-.1386.0181-.208.0405-.0672.0214-.1269.0544-.1887.0896-.0395.0224-.0843.0299-.1217.0576L8.45836 46.973 6.6567 45.1788l4.798-4.7723 8.7212 8.5773-1.8551 1.8379Zm13.6376-14.0334c-.0309-.0042-.0598.0075-.0907.0054-.0779-.0043-.1525.0011-.2304.0139-.0607.0106-.1183.0223-.176.0426-.0682.0235-.1301.0555-.1931.0939-.0597.0362-.1141.0746-.1664.1226-.0256.0224-.0565.0331-.08.0586l-9.3965 10.2914-8.6561-8.5132 5.6662-5.6364c.4171-.416.4192-1.0912.0032-1.5094-.2101-.2101-.4863-.3136-.7626-.3125v-.001l-4.4374.0267.0555-3.215 6.2081.0534c2.5301 2.5878 6.0587 4.2017 9.9627 4.2017.8747 0 1.7281-.0906 2.559-.2454.08.064.1588.1292.2592.1697l4.8193 1.92.305 1.5168.3563 1.7706-6.0053-.8544Zm8.0822.3563-.6261-3.1158 2.8928-2.1601.7574 1.0048 1.136 1.5083-4.1601 2.7628Zm7.5072-5.662-1.6757 1.5702-1.8624-2.4726 1.6629-1.2746c.3103-.2389.7019-.336 1.0859-.2859.3861.0544.7275.256.96.5685.4331.5835.3595 1.3974-.1707 1.8944Z"/><path fill="#2E2F42" d="m27.2041 37.0881-4.2859-4.2667c-.4149-.4149-1.0892-.4149-1.5052 0l-4.2848 4.2667c-.2005.2016-.3136.4725-.3136.7562 0 .2838.112.5558.3136.7563l4.2848 4.2667c.208.2069.4812.3104.7532.3104.272 0 .545-.1035.752-.3104l4.2859-4.2667c.2005-.2005.3146-.4725.3146-.7563 0-.2837-.1131-.5557-.3146-.7562Zm-5.0379 3.5179-2.7735-2.7617 2.7735-2.7616 2.7744 2.7616-2.7744 2.7617Zm12.1623-30.4645-.5153 2.0716c.1419.0352 3.4753.9035 3.4753 4.2977h2.1334c-.0001-4.0343-3.3313-5.9309-5.0934-6.3693Zm5.0935 8.5025h-2.1334v2.1335h2.1334V18.644Z"/>
</svg>

<svg  xmlns="http://www.w3.org/2000/svg"  viewBox="0 0 64 64"><path fill="#4D5AE5" d="M63.9481 9.04812c-.1259-.38513-.4587-.66663-.8608-.72538l-3.8208-.55576-1.7099-3.46243c-.3584-.72963-1.5541-.72963-1.9125 0l-1.7099 3.46243-3.821.55588c-.4021.05863-.7348.33926-.8618.72539-.1248.38613-.0214.81064.2698 1.09335l2.766 2.6956-.6528 3.8059c-.0683.4.096.8043.4235 1.0433.3318.2411.7648.2709 1.1243.081l3.4176-1.7974 3.4177 1.7974c.1558.0821.3275.1226.4971.1226.2208 0 .4417-.0682.6273-.2037.3285-.2389.4928-.6433.4235-1.0433l-.6527-3.8059 2.7659-2.6956c.2897-.28374.3944-.70725.2695-1.09338ZM59.0223 11.702c-.2507.2443-.3659.5984-.3062.9441l.3819 2.2282-2.001-1.0517c-.1558-.0822-.3264-.1227-.4972-.1227-.1706 0-.3402.0405-.4971.1227l-2.0011 1.0517.3818-2.2282c.0598-.3457-.0555-.6987-.3061-.9441l-1.6203-1.5786 2.2379-.32539c.3478-.05013.6475-.26875.8033-.58351l1.0005-2.02665 1.0005 2.02665c.1558.31463.4555.53338.8033.58351l2.2379.32539-1.6181 1.5786ZM52.267 41.0444h-2.1335v2.1334h2.1335v-2.1334Zm0 4.2668h-2.1335v2.1334h2.1335v-2.1334Zm2.1334-2.1334H52.267v2.1334h2.1334v-2.1334Z"/><path fill="#4D5AE5" d="M50.1337 43.1778h-2.1335v2.1334h2.1335v-2.1334Zm-5.3336 9.6002h-2.1334v2.1333h2.1334V52.778Zm0 4.2666h-2.1334v2.1335h2.1334v-2.1335Zm2.1335-2.1333h-2.1334v2.1335h2.1334v-2.1335Zm-4.2669 0h-2.1334v2.1335h2.1334v-2.1335ZM32 48.5113h-2.1334v2.1334H32v-2.1334Zm0 4.2667h-2.1334v2.1333H32V52.778Zm2.1334-2.1335H32v2.1334h2.1334v-2.1334Zm-4.2668 0h-2.1334v2.1334h2.1334v-2.1334ZM11.733 12.2439H9.59961v2.1334H11.733v-2.1334Zm0 4.2669H9.59961v2.1334H11.733v-2.1334Z"/><path fill="#4D5AE5" d="M13.8663 14.3774h-2.1334v2.1334h2.1334v-2.1334Zm-4.26671 0h-2.1334v2.1334h2.1334v-2.1334Z"/><path fill="#2E2F42" d="M49.4295 28.3189c-.5749-.7755-1.4186-1.2746-2.3765-1.4091-.9622-.1365-1.9116.1162-2.6796.704l-2.5035 1.9189-.0011.0011-3.7954 2.8342-2.7157-1.0816c4.8427-2.1728 8.2273-7.0166 8.2273-12.6402 0-7.646-6.2454-13.86687-13.9223-13.86687S15.7405 11.0002 15.7405 18.6462c0 2.7713.8287 5.3483 2.24 7.5168l-5.5276-.048h-.0096c-.0171 0-.0309.0085-.0469.0097-.1056.0042-.2091.0256-.3104.0618-.0256.0097-.0522.015-.0767.0267-.0128.0053-.0256.0063-.0384.0127l-6.46622 3.1926c-.00112 0-.00212 0-.00212.001l-3.78681 1.821c-.04163.0181-.08425.0426-.12588.0704C.08047 32.3156-.43366 34.289.3931 35.9018c.44051.8576 1.1904 1.4892 2.11204 1.7782.35525.1108.71788.1653 1.07839.1653.57926 0 1.15314-.1418 1.6789-.4223l2.77555-1.4763 4.52802-2.3382 2.7137-.016L4.39629 44.4237c-.001.0011-.00212.0011-.00325.0021l-2.67741 2.6667c-.63251.6294-.98027 1.4645-.98027 2.3553 0 .8896.34776 1.7269.98027 2.3574.64963.6464 1.50402.9706 2.35841.9706.85551 0 1.70877-.3242 2.36053-.9706l2.6283-2.6177 3.48163-2.5995 1.8017 1.7941-3.5233 3.5083c-.001.0012-.0021.0012-.0033.0022l-2.67737 2.6666c-.63251.6294-.98027 1.4645-.98027 2.3553 0 .8896.34776 1.7269.98027 2.3574.64963.6464 1.50515.9707 2.35957.9707.8544 0 1.7099-.3243 2.3605-.9707l2.6784-2.6667 4.2848-4.2666c.0012-.0012.0012-.0022.0022-.0033l2.0192-2-.0075-.0075c.0128-.0128.0309-.0172.0438-.0309l10.3319-11.3164 6.942.9877c.0501.0075.1002.0107.1504.0107.1291 0 .2538-.0309.3744-.0768.0352-.0127.0661-.0299.0992-.0469.0384-.0192.0789-.0298.1153-.0543l6.4267-4.2667c.0235-.016.0362-.0417.0586-.0587.0256-.0202.0576-.0287.081-.0512l2.5429-2.3819c1.3232-1.2398 1.5055-3.2707.4239-4.7235ZM4.26079 35.5403c-.34663.1856-.74026.2229-1.11677.1035-.37338-.1163-.67626-.3713-.85339-.7158-.32213-.6272-.1355-1.391.42876-1.8037l2.62729-1.2641.63251 1.8486.26563.7765-1.98403 1.055Zm6.99421-3.6554-3.09652 1.6-.51089-1.4934-.36688-1.0731 4.05349-2.0012-.0792 2.9677ZM41.4539 18.644c0 1.8368-.4384 3.5692-1.1979 5.119l-8.3628-3.7984c-.0875-1.1467-.6826-2.1504-1.5765-2.7756l2.928-9.72063c4.7554 1.51265 8.2092 5.94893 8.2092 11.17563Zm-23.5779 0c0-6.4694 5.2886-11.73351 11.7889-11.73351.5057 0 1.0006.04262 1.4902.1045L28.291 16.5224c-.0383-.0011-.0746-.0118-.1141-.0118-2.0651 0-3.7452 1.6747-3.7452 3.7335 0 2.0586 1.6801 3.7334 3.7452 3.7334 1.3888 0 2.5888-.7669 3.2363-1.8892l7.7249 3.5095c-2.1494 2.8928-5.5895 4.7798-9.4733 4.7798-6.5002 0-11.7888-5.2641-11.7888-11.7336Zm11.9127 1.6001c0 .8821-.7233 1.6-1.6118 1.6-.8885 0-1.6118-.7179-1.6118-1.6 0-.8822.7233-1.6001 1.6118-1.6001.8885 0 1.6118.7179 1.6118 1.6001ZM4.92968 50.2925c-.47251.4683-1.2374.4673-1.70878.0011-.22725-.2272-.35201-.5268-.35201-.8458 0-.3179.12476-.6177.35201-.8427l1.92415-1.9169 1.70241 1.695-1.91778 1.9093Zm6.42772 7.4669c-.4725.4682-1.2384.4694-1.7099.0011-.22725-.2272-.35201-.5269-.35201-.8459 0-.3179.12476-.6176.35201-.8426l1.9254-1.9179.8054.8011.8981.8939-1.919 1.9103Zm6.9634-6.9377c-.0012.001-.0022.001-.0033.0021l-3.5297 3.52-.8054-.8011-.8981-.8939 3.5264-3.5104v-.001c.0012-.0011.0022-.0011.0033-.0021.08-.08.1301-.176.1792-.2709.0139-.0278.0405-.0513.0523-.08.0331-.0821.0384-.1706.0512-.2572.0064-.0491.0278-.0948.0278-.1451 0-.0715-.0256-.1407-.0405-.2112-.0128-.064-.0128-.1292-.0374-.1909-.0405-.1003-.1099-.1888-.1824-.2753-.0202-.0235-.0277-.0533-.0501-.0757h-.0011c-.0011-.001-.0011-.0033-.0021-.0043l-3.214-3.2c-.0341-.0341-.0778-.048-.1162-.0768-.0565-.0437-.1109-.0842-.1739-.1152-.0607-.0299-.1226-.048-.1866-.0651-.0683-.0193-.1344-.0342-.2059-.0395-.0651-.0043-.1259.0021-.1909.0096-.0715.0085-.1386.0181-.208.0405-.0672.0214-.1269.0544-.1887.0896-.0395.0224-.0843.0299-.1217.0576L8.45836 46.973 6.6567 45.1788l4.798-4.7723 8.7212 8.5773-1.8551 1.8379Zm13.6376-14.0334c-.0309-.0042-.0598.0075-.0907.0054-.0779-.0043-.1525.0011-.2304.0139-.0607.0106-.1183.0223-.176.0426-.0682.0235-.1301.0555-.1931.0939-.0597.0362-.1141.0746-.1664.1226-.0256.0224-.0565.0331-.08.0586l-9.3965 10.2914-8.6561-8.5132 5.6662-5.6364c.4171-.416.4192-1.0912.0032-1.5094-.2101-.2101-.4863-.3136-.7626-.3125v-.001l-4.4374.0267.0555-3.215 6.2081.0534c2.5301 2.5878 6.0587 4.2017 9.9627 4.2017.8747 0 1.7281-.0906 2.559-.2454.08.064.1588.1292.2592.1697l4.8193 1.92.305 1.5168.3563 1.7706-6.0053-.8544Zm8.0822.3563-.6261-3.1158 2.8928-2.1601.7574 1.0048 1.136 1.5083-4.1601 2.7628Zm7.5072-5.662-1.6757 1.5702-1.8624-2.4726 1.6629-1.2746c.3103-.2389.7019-.336 1.0859-.2859.3861.0544.7275.256.96.5685.4331.5835.3595 1.3974-.1707 1.8944Z"/><path fill="#2E2F42" d="m27.2041 37.0881-4.2859-4.2667c-.4149-.4149-1.0892-.4149-1.5052 0l-4.2848 4.2667c-.2005.2016-.3136.4725-.3136.7562 0 .2838.112.5558.3136.7563l4.2848 4.2667c.208.2069.4812.3104.7532.3104.272 0 .545-.1035.752-.3104l4.2859-4.2667c.2005-.2005.3146-.4725.3146-.7563 0-.2837-.1131-.5557-.3146-.7562Zm-5.0379 3.5179-2.7735-2.7617 2.7735-2.7616 2.7744 2.7616-2.7744 2.7617Zm12.1623-30.4645-.5153 2.0716c.1419.0352 3.4753.9035 3.4753 4.2977h2.1334c-.0001-4.0343-3.3313-5.9309-5.0934-6.3693Zm5.0935 8.5025h-2.1334v2.1335h2.1334V18.644Z"/>

                             <!-- Our Team Section icons -->

<!-- Instagram -->
<svg id="instagram" width="16px" height="16px" xmlns="http://www.w3.org/2000/svg"  viewBox="0 0 16 16">
  <g fill="#F4F4FD" clip-path="url(#a)">
    <path d="M15.9843 4.70392c-.0375-.85014-.175-1.4346-.3719-1.94105-.2032-.53758-.5157-1.01888-.9252-1.41898-.4001-.40633-.8846-.72206-1.4159-.92206-.5094-.19693-1.0908-.33441-1.941-.3719-.8565-.04065-1.1284-.05005-3.30067-.05005-2.1723 0-2.4442.0094-3.29751.04688-.85015.03748-1.43461.17508-1.94093.3719-.53771.20317-1.019.51573-1.4191.92523-.40633.4001-.72195.88457-.92206 1.41593-.19693.5095-.33441 1.09079-.3719 1.94093-.04065.85649-.05005 1.12839-.05005 3.30069 0 2.17226.0094 2.44416.04688 3.29756.03748.8501.17508 1.4346.37202 1.941.20316.5376.51878 1.0189.92511 1.419.4001.4063.88457.7221 1.41592.922.5095.197 1.09079.3345 1.94105.3719.8532.0377 1.12522.0469 3.29752.0469 2.17232 0 2.44422-.0092 3.29752-.0469.8501-.0374 1.4346-.1749 1.9409-.3719 1.0753-.4157 1.9254-1.2658 2.3412-2.341.1968-.5095.3344-1.0909.3719-1.941.0375-.8534.0469-1.1253.0469-3.29756 0-2.1723-.0032-2.4442-.0407-3.29752Zm-1.4408 6.53248c-.0345.7815-.1657 1.2034-.2751 1.4847-.2689.697-.8221 1.2503-1.5191 1.5191-.2813.1094-.7063.2407-1.4847.275-.8439.0376-1.097.0468-3.23179.0468-2.13482 0-2.39109-.0092-3.23196-.0468-.7814-.0343-1.20335-.1656-1.48466-.275-.34687-.1282-.6626-.3314-.91888-.597-.26568-.2595-.46884-.572-.59704-.9189-.1094-.2813-.24065-.7064-.27495-1.4847-.03761-.8439-.04689-1.0971-.04689-3.23193 0-2.13482.00928-2.39109.04689-3.23183.0343-.78141.16555-1.20336.27495-1.48467.1282-.34699.33136-.6626.60022-.919.25932-.26568.57188-.46884.91888-.59692.2813-.1094.70643-.24065 1.48466-.27508.84391-.03748 1.09714-.04688 3.23183-.04688 2.13794 0 2.39104.0094 3.23194.04688.7814.03443 1.2034.16568 1.4847.27508.3468.12808.6626.33124.9189.59692.2656.25945.4688.57201.597.919.1094.28131.2406.70631.2751 1.48467.0375.84391.0469 1.09701.0469 3.23183 0 2.13483-.0094 2.38483-.0469 3.22873Z"/>
    <path d="M8.02967 3.89124c-2.26912 0-4.11018 1.84093-4.11018 4.11017 0 2.26929 1.84106 4.11019 4.11018 4.11019 2.26923 0 4.11013-1.8409 4.11013-4.11019 0-2.26924-1.8409-4.11017-4.11013-4.11017Zm0 6.77636c-1.47209 0-2.66617-1.19398-2.66617-2.66619 0-1.47221 1.19408-2.66617 2.66617-2.66617 1.47221 0 2.66613 1.19396 2.66613 2.66617 0 1.47221-1.19392 2.66619-2.66613 2.66619ZM13.262 3.72871c0 .52989-.4296.95954-.9596.95954-.5299 0-.9596-.42965-.9596-.95954 0-.53002.4297-.95954.9596-.95954.53 0 .9596.42952.9596.95954Z"/>
  </g>
  <defs>
    <clipPath id="a">
      <path fill="#fff" d="M0 0h16v16H0z"/>
    </clipPath>
  </defs>
</svg>

<!-- Twitter -->
<svg id="twitter" xmlns="http://www.w3.org/2000/svg" width="16px" height="16px" viewBox="0 0 16 16">
  <g clip-path="url(#a)">
    <path fill="#F4F4FD" d="M16 3.03888c-.595.261-1.229.434-1.89.518.68-.406 1.199-1.044 1.443-1.813-.634.378-1.334.645-2.08.794-.602-.641-1.46-1.038-2.396-1.038-1.816 0-3.278 1.474-3.278 3.281 0 .26.022.51.076.748-2.727-.133-5.14-1.44-6.761-3.431-.283.491-.449 1.053-.449 1.658 0 1.136.585 2.143 1.457 2.726-.527-.01-1.044-.163-1.482-.404v.036c0 1.594 1.137 2.918 2.628 3.223-.267.073-.558.108-.86.108-.21 0-.422-.012-.621-.056.425 1.29902 1.631 2.25402 3.065 2.28502-1.116.873-2.533 1.399-4.067 1.399-.269 0-.527-.012-.785-.045 1.453.937 3.175 1.472 5.032 1.472 6.036 0 9.336-5.00002 9.336-9.33402 0-.145-.005-.285-.012-.424.651-.462 1.198-1.039 1.644-1.703Z"/>
  </g>
  <defs>
    <clipPath id="a">
      <path fill="#fff" d="M0 0h16v16H0z"/>
    </clipPath>
  </defs>
</svg>

<!-- Facebook -->
<svg id="facebook" xmlns="http://www.w3.org/2000/svg" width="16px" height="16px" viewBox="0 0 16 16">
  <g clip-path="url(#a)">
    <path fill="#F4F4FD" d="M10.6647 2.65654h1.4607v-2.544c-.252-.03466-1.1187-.11266-2.12804-.11266-2.106 0-3.54866 1.32466-3.54866 3.75933v2.24067H4.12469v2.844H6.4487v7.15602h2.84933V8.84455H11.528l.354-2.844H9.29736V4.04121c.00067-.822.222-1.38467 1.36734-1.38467Z"/>
  </g>
  <defs>
    <clipPath id="a">
      <path fill="#fff" d="M0 0h16v16H0z"/>
    </clipPath>
  </defs>
</svg>

<!-- Linkedin -->
<svg id="linkedin" xmlns="http://www.w3.org/2000/svg" width="16px" height="16px" viewBox="0 0 16 16">
  <g fill="#F4F4FD" clip-path="url(#a)">
    <path d="M15.9961 15.9999v-.0007h.004v-5.868c0-2.87067-.618-5.08201-3.974-5.08201-1.6133 0-2.69601.88534-3.13801 1.72467h-.04666V5.31719H5.65942V15.9992h3.31334v-5.2893c0-1.39271.264-2.73937 1.98864-2.73937 1.6994 0 1.7247 1.58933 1.7247 2.82867v5.2007h3.31ZM.26404 5.31787h3.31733V15.9999H.26404V5.31787ZM1.92139-.00012C.86073-.00012.00006.86055.00006 1.9212c0 1.06067.86067 1.93934 1.92133 1.93934 1.06067 0 1.92134-.87867 1.92134-1.93934C3.84206.86054 2.98139-.00012 1.92139-.00012Z"/>
  </g>
  <defs>
    <clipPath id="a">
      <path fill="#fff" d="M0 0h16v16H0z"/>
    </clipPath>
  </defs>
</svg>

                      <!-- Customers Section icons -->

<!-- YA-CO -->
<svg id="yaco" xmlns="http://www.w3.org/2000/svg" width="104px" height="56px" viewBox="0 0 104 56">
  <path fill="#8E8F99" fill-rule="evenodd" d="m38 7 7.0078 6.6764L32 13.6687v32.3922h34V33.6758l7 6.669V7H38Zm27.6924 25.8922L45.8226 13.962h19.8698v18.9302Zm-6.1693 8.4305h-22.143V19.5373h1.5652v20.3102h20.5778v1.4752ZM41.7959 52.0611l-.8252-1.6968h-.6811l1.1962 2.2461v1.3086h.6177v-1.3086l1.1963-2.2461h-.6787l-.8252 1.6968Zm3.042-1.6968h.1465l1.3427 3.5547h-.6445l-.2876-.8325h-1.3761l-.287.8325h-.6421l1.3379-3.5547h.4102Zm-.6515 2.2364h1.0407l-.5209-1.508-.5198 1.508Zm4.2957-.589a9.54873 9.54873 0 0 1-.0773-.0995c-.0912-.1205-.162-.2368-.2124-.3491-.0505-.114-.0757-.2312-.0757-.3516 0-.1855.0382-.345.1147-.4785s.1848-.236.3248-.3076c.1399-.0733.3035-.1099.4907-.1099.1806 0 .3361.0366.4663.1099.1318.0716.2327.1668.3027.2856.0716.1188.1074.249.1074.3906 0 .1123-.0203.2149-.061.3077-.0407.0927-.0968.1774-.1685.2539-.0716.0765-.1546.1489-.249.2173l-.2469.1797.7039.8307c.0232-.0456.0442-.0936.063-.1437.0603-.1563.0904-.3296.0904-.5201h.5078c0 .1726-.0171.3361-.0513.4908-.0325.1546-.0854.2978-.1587.4296-.0297.0547-.0633.107-.1008.1569l.5207.6146h-.6811l-.2066-.243a1.38397 1.38397 0 0 1-.3647.1991c-.1725.0618-.3564.0928-.5517.0928-.2361 0-.4403-.0432-.6128-.1294-.1726-.0863-.306-.2051-.4004-.3565-.0928-.1514-.1392-.3247-.1392-.52 0-.1449.0301-.2718.0903-.3809.0603-.1106.1425-.2132.2466-.3076.0962-.0873.2058-.1745.3288-.2618Zm.2917.3572-.0736.0535c-.0863.07-.1506.1376-.1929.2027-.0407.0635-.0675.1221-.0805.1758-.0131.0537-.0196.1009-.0196.1416 0 .1041.022.1985.0659.2832.0456.0846.1115.1521.1978.2026.0879.0488.1945.0732.3198.0732.1351 0 .2661-.0301.3931-.0903.0636-.031.124-.0683.181-.112l-.791-.9303Zm.1405-.6493.218-.1468c.1026-.0683.1758-.1351.2198-.2002.0439-.0667.0659-.1497.0659-.249 0-.0846-.0326-.1627-.0977-.2344-.0651-.0716-.1571-.1074-.2759-.1074-.083 0-.153.0195-.2099.0586-.057.0374-.1001.0879-.1294.1514-.0277.0618-.0415.131-.0415.2075 0 .0732.0187.1489.0561.227.0375.0765.0887.1571.1538.2417.0133.017.0269.0341.0408.0516Zm6.219 1.0422h-.6104c-.0179.1546-.0553.2856-.1123.3931-.0553.1058-.1375.1863-.2465.2417-.1075.0553-.2482.083-.4224.083-.1432 0-.2661-.0285-.3687-.0855-.1025-.0569-.1871-.1375-.2539-.2417-.0651-.1041-.1139-.2287-.1464-.3735-.031-.1465-.0464-.3093-.0464-.4883v-.3003c0-.1888.0171-.3564.0512-.5029.0358-.1481.0887-.2726.1587-.3736.07-.1009.1571-.1774.2613-.2294.1041-.0521.2262-.0782.3662-.0782.1709 0 .3092.0293.415.0879.1058.057.1856.14.2393.249.0553.1091.0911.2401.1074.3931h.6103c-.0244-.2376-.0911-.4484-.2002-.6323-.1074-.1839-.2587-.328-.4541-.4321-.1953-.1042-.4345-.1563-.7177-.1563-.223 0-.424.0391-.6031.1172-.1774.0781-.3295.1912-.4565.3394-.127.1464-.2246.323-.293.5297-.0667.2067-.1001.4379-.1001.6934v.2954c0 .2555.0326.4867.0977.6934.0667.2067.1628.3833.2881.5298.1253.1448.2759.2571.4516.3369.1758.0781.3736.1172.5933.1172.2865 0 .5298-.0521.73-.1563.2002-.1042.3556-.2466.4663-.4272.1107-.1823.1758-.3899.1953-.6226Zm3.3911-.5225v-.1953c0-.2685-.0358-.5086-.1074-.7202-.07-.2132-.1701-.3947-.3003-.5444-.1302-.1514-.2856-.2661-.4663-.3443-.1807-.0797-.3809-.1196-.6006-.1196-.2181 0-.4175.0399-.5981.1196-.1791.0782-.3345.1929-.4663.3443-.1303.1497-.2312.3312-.3028.5444-.0716.2116-.1074.4517-.1074.7202v.1953c0 .2686.0358.5095.1074.7227.0733.2132.1758.3947.3076.5444.1319.1498.2873.2645.4663.3443.1807.0781.3801.1172.5982.1172.2197 0 .4199-.0391.6006-.1172.1806-.0798.3353-.1945.4638-.3443.1302-.1497.2303-.3312.3003-.5444s.105-.4541.105-.7227Zm-.6128-.2002v.2002c0 .1986-.0195.3744-.0586.5274-.0374.153-.0927.2824-.166.3882-.0732.1041-.1627.1831-.2685.2368-.1058.0521-.2271.0781-.3638.0781-.1351 0-.2555-.026-.3613-.0781-.1058-.0537-.197-.1327-.2735-.2368-.0748-.1058-.1318-.2352-.1709-.3882-.039-.153-.0586-.3288-.0586-.5274v-.2002c0-.1985.0196-.3735.0586-.5249.0391-.153.0952-.2807.1685-.3833.0748-.1041.1652-.1823.271-.2343.1058-.0537.2262-.0806.3613-.0806s.2564.0269.3638.0806c.1074.052.1977.1302.271.2343.0748.1026.131.2303.1684.3833.0391.1514.0586.3264.0586.5249Z" clip-rule="evenodd"/>
</svg>

<!-- Company-Tagline -->
<svg id="taglinecomp" xmlns="http://www.w3.org/2000/svg" width="104px" height="56px" viewBox="0 0 104 56">
  <g fill="#8E8F99">
    <path fill-rule="evenodd" d="M50.1136 5.93452h-.1366c-.2099-.01271-.4199-.0178-.6299-.02289h-.4553c-.3972 0-.802.01018-1.2042.03052a.62534.62534 0 0 0-.091 0c-3.6444.20648-7.2149 1.11736-10.5161 2.68277l-.4326.20852V30.9746l1.0119-.3433c.8879-.3052 1.834-.5798 2.813-.8341a34.329 34.329 0 0 1 8.0952-1.0756v2.909c-.3618.0026-.7134.0128-1.065.0306h-.0835c-2.102.1153-4.1878.4355-6.2282.9561-2.5841.647-5.077 1.6184-7.4197 2.8913V7.11189c2.4331-1.41914 5.0537-2.48502 7.784-3.16593A29.79288 29.79288 0 0 1 48.8918 3h.4275c.511.01271 1.0094.0356 1.4774.0712a21.09142 21.09142 0 0 1 3.6554.58233v2.86332a22.62272 22.62272 0 0 0-3.5416-.53401l-.0726-.00618c-.2468-.02105-.4939-.04214-.7243-.04214Zm5.0392 2.92686c.6349.04832 1.2927.07121 1.958.07121a31.46724 31.46724 0 0 0 7.7131-.9892c2.5829-.64943 5.0747-1.62161 7.4172-2.89383V32.9402c-2.4344 1.4183-5.0558 2.4841-7.7865 3.1659a29.9427 29.9427 0 0 1-7.3362.9435 22.4048 22.4048 0 0 1-5.5654-.6561V8.32229c.43.09917.8727.19072 1.323.267.7387.12461 1.5179.21615 2.2768.27209Zm14.1943.21615-1.0119.34075c-.931.31278-1.8695.59252-2.8131.84172a34.2628 34.2628 0 0 1-8.4063 1.0782c-.6602 0-1.2673-.0178-1.8542-.056l-.807-.0534V34.0057l.6931.061c.6426.056 1.3054.0839 1.9732.0839 2.2335-.0094 4.4572-.2973 6.6203-.8569a27.76376 27.76376 0 0 0 5.1733-1.8589l.4326-.2085V9.07753Z" clip-rule="evenodd"/>
    <path d="M35.7371 45.2124a1.491 1.491 0 0 0-.5147-.3478 1.48616 1.48616 0 0 0-.611-.1074 1.67228 1.67228 0 0 0-.6501.1221 1.50145 1.50145 0 0 0-.506.3331c-.1428.1448-.254.318-.3263.5086a1.6501 1.6501 0 0 0-.1164.6281v3.794c-.009.2673.042.5333.1493.7781.0895.1944.2188.3677.3794.5086.1517.1277.3297.2197.5212.2696.1844.0518.3751.0783.5666.0788.2113.0021.4204-.0431.6122-.1322.1896-.083.3615-.2022.506-.351.1408-.1474.2532-.3198.3313-.5086.0811-.1913.1224-.3972.1215-.6052v-.4246h-.9917v.3382a.87958.87958 0 0 1-.0582.3382.60753.60753 0 0 1-.1442.2136.60454.60454 0 0 1-.2074.1093.69733.69733 0 0 1-.2074.0356.50307.50307 0 0 1-.26-.0388.50656.50656 0 0 1-.2055-.1646.89816.89816 0 0 1-.1315-.5086v-3.5372a1.20711 1.20711 0 0 1 .1214-.567.50693.50693 0 0 1 .2102-.1845.50281.50281 0 0 1 .2755-.0444.52684.52684 0 0 1 .2475.052.5298.5298 0 0 1 .1952.1616c.111.1457.169.3252.1644.5086v.328h.9816v-.3865a1.79022 1.79022 0 0 0-.1215-.6637 1.56069 1.56069 0 0 0-.3314-.534ZM41.6289 45.1691c-.3162-.267-.7153-.4145-1.1282-.417-.202.0008-.4023.037-.592.1068-.1926.069-.3703.1743-.5236.3102a1.5597 1.5597 0 0 0-.3846.5315c-.0999.2317-.149.4824-.1442.7349v3.6389c-.0068.256.0424.5103.1442.7451.0898.1956.221.3692.3846.5085.1516.1408.3296.2497.5236.3205.1897.0698.39.1059.592.1068a1.7138 1.7138 0 0 0 .5919-.1068 1.6563 1.6563 0 0 0 .5363-.3205c.1582-.1419.2856-.315.3744-.5085.1018-.2348.1511-.4891.1442-.7451v-3.6389a1.76985 1.76985 0 0 0-.1442-.7349 1.64111 1.64111 0 0 0-.3744-.5315Zm-.4629 4.9053a.65557.65557 0 0 1-.0392.2857.65317.65317 0 0 1-.1581.2407.7267.7267 0 0 1-.4668.17c-.1706 0-.3357-.0602-.4667-.17a.6507.6507 0 0 1-.1581-.2407.65262.65262 0 0 1-.0392-.2857v-3.6389a.65262.65262 0 0 1 .0392-.2857.64988.64988 0 0 1 .1581-.2407c.131-.1098.2961-.17.4667-.17a.7267.7267 0 0 1 .4668.17.65235.65235 0 0 1 .1581.2407.65557.65557 0 0 1 .0392.2857v3.6389ZM49.3673 51.6994v-6.8887h-.9537l-1.2522 3.6465h-.0177l-1.2624-3.6465h-.9436v6.8887h.9841v-4.1907h.0177l.9638 2.9625h.4908l.9714-2.9625h.0177v4.1907h.9841ZM54.9581 45.2937c-.1516-.17-.3428-.2994-.5566-.3764a2.18377 2.18377 0 0 0-.7134-.1068H52.226v6.8888h.9815v-2.6904h.5059c.3063.0139.611-.0509.8854-.1882.2232-.1239.4093-.3057.5389-.5264.1135-.1832.19-.3872.2251-.6001.0386-.2592.0564-.5212.0531-.7832a3.92308 3.92308 0 0 0-.0961-.9841c-.0655-.2384-.1899-.4563-.3617-.6332Zm-.506 2.1004a.86672.86672 0 0 1-.0911.3586c-.0561.1059-.1448.1907-.2529.2415-.1454.0651-.304.0947-.463.0865h-.4477v-2.342h.5059a.94224.94224 0 0 1 .4427.0864.55623.55623 0 0 1 .2302.2543c.0537.121.0829.2516.086.384v.4577c0 .1602.0101.3255 0 .473h-.0101ZM59.6077 44.8107h-.8045l-1.5178 6.8887h.9815l.2884-1.48h1.3382l.2884 1.48h.9816l-1.5558-6.8887Zm-.9057 4.4704.4832-2.4971h.0177l.4807 2.4971h-.9816ZM65.9497 48.9607h-.0177l-1.4824-4.15h-.9436v6.8887h.9815V47.557h.0203l1.5001 4.1424h.9233v-6.8887h-.9815v4.15ZM71.9476 44.8107l-.7893 2.7387h-.0202l-.7893-2.7387h-1.0397l1.3483 3.9771v2.9116h.9816v-2.9116l1.3483-3.9771h-1.0397ZM33 53.6445h.4731v1.3274h.3212v-1.3274h.4706v-.2721H33v.2721ZM36.9767 53.3724l-.6198 1.5995h.3415l.1316-.3636h.6375l.1366.3636h.3491l-.635-1.5995h-.3415Zm-.0506.9663.2176-.5925.2175.5925h-.4351ZM40.9079 54.3821h.3694v.206a.61284.61284 0 0 1-.3795.1348.40363.40363 0 0 1-.1879-.0349.40557.40557 0 0 1-.1511-.1177.66923.66923 0 0 1-.1189-.417c0-.356.1543-.534.4604-.534a.33736.33736 0 0 1 .2277.0598c.0664.0466.1139.1156.1341.1944l.3162-.061c-.0683-.3128-.2934-.4704-.678-.4704-.2056-.0055-.4056.0682-.559.206a.77921.77921 0 0 0-.1827.2821.78306.78306 0 0 0-.0475.3332.87204.87204 0 0 0 .2049.6002.77557.77557 0 0 0 .278.1839.77316.77316 0 0 0 .3291.05c.2503.007.4934-.0842.678-.2543v-.6306h-.6932v.2695ZM44.9226 53.3724h-.3238v1.5995h1.1206v-.2721h-.7968v-1.3274ZM48.3175 53.3724h-.3238v1.5995h.3238v-1.5995ZM51.6365 54.4405l-.6552-1.0681h-.3137v1.5995h.301v-1.0451l.6426 1.0451h.3213v-1.5995h-.296v1.0681ZM54.6368 54.2675h.7969v-.2721h-.7969v-.3509h.8576v-.2721H54.313v1.5995h1.2143v-.2721h-.8905v-.4323ZM61.9122 54.0031h-.6299v-.6307h-.3212v1.5995h.3212v-.6993h.6299v.6993h.3213v-1.5995h-.3213v.6307ZM64.9302 54.2675h.7994v-.2721h-.7994v-.3509h.8601v-.2721h-1.1814v1.5995h1.2117v-.2721h-.8904v-.4323ZM69.0233 54.2676c.2782-.0432.4199-.1907.4199-.445a.38278.38278 0 0 0-.0298-.1996.38042.38042 0 0 0-.1271-.1564.90378.90378 0 0 0-.468-.0941h-.6779v1.5995h.3213v-.6688h.0632c.0685-.0042.137.008.1998.0356.047.029.0861.0691.1139.117l.3491.5086h.3845l-.1948-.3128a1.1151 1.1151 0 0 0-.3541-.384Zm-.3239-.2212h-.2377v-.4018h.2529a.83986.83986 0 0 1 .3264.0381.2093.2093 0 0 1 .054.0752c.0122.0288.0177.06.0163.0913a.20987.20987 0 0 1-.0247.0893.20798.20798 0 0 1-.0608.0697.9127.9127 0 0 1-.3264.0382ZM72.1096 54.2675h.7968v-.2721h-.7968v-.3509h.8601v-.2721h-1.1839v1.5995H73v-.2721h-.8904v-.4323Z"/>
  </g>
</svg>

<!-- Company -->
<svg id="company" xmlns="http://www.w3.org/2000/svg" width="104px" height="56px" viewBox="0 0 104 56">
  <g fill="#8E8F99">
    <path d="M36.8098 49.2233c.0161.0003.032.0035.0467.0091a.12324.12324 0 0 1 .0389.0239l.2208.2076c-.1714.168-.3832.3023-.6211.3939-.2784.0999-.5786.1481-.8805.1415-.2837.005-.5656-.04-.8281-.1321-.2368-.0846-.4495-.2117-.6239-.3727-.1778-.167-.3149-.3626-.403-.5755-.0964-.2373-.1441-.4871-.1407-.7383-.004-.2528.0475-.5041.1518-.7407.0964-.2142.2419-.4099.4278-.5755.1885-.1625.414-.2901.6625-.3751.2719-.09.5614-.1349.853-.1321.2708-.0056.5402.0353.7922.1203.2186.0811.4193.1936.5935.3326l-.185.2217a.1789.1789 0 0 1-.0469.0401c-.0218.0128-.0482.0187-.0745.0166-.0287-.0017-.0563-.0099-.0801-.0236l-.0994-.059-.138-.0755a1.60408 1.60408 0 0 0-.1849-.0731 1.9677 1.9677 0 0 0-.2512-.059 1.9704 1.9704 0 0 0-.3285-.0236c-.21-.0022-.4183.0315-.6128.0991-.1814.0626-.3451.1575-.4803.2783-.1376.1285-.2437.2793-.3119.4435-.0778.1878-.1161.3858-.1132.585-.0033.2022.035.4034.1132.5944.0673.1627.1714.3126.3064.4411.1264.1198.2831.2133.4582.2736.1802.0638.3736.0959.5686.0944.1127.0014.2253-.0049.3368-.0189.182-.019.3566-.073.5107-.1581.0772-.0435.1502-.0924.218-.1462.0284-.0231.0657-.0366.1049-.0377ZM43.1861 48.1803c.0035.2502-.0471.4989-.149.7335-.09.2128-.2317.4069-.4158.5696-.1842.1626-.4065.29-.6525.3739-.5404.1761-1.1378.1761-1.6782 0-.2444-.0852-.4653-.2129-.6487-.3751-.184-.1655-.3268-.3613-.4196-.5755-.1988-.475-.1988-.9943 0-1.4694.0942-.2142.2367-.4106.4196-.5778.1849-.1571.4057-.2799.6487-.3609.5397-.1793 1.1385-.1793 1.6782 0 .2452.0851.4671.2128.6515.375.1817.164.3234.3572.4168.5684.1022.2362.1528.4865.149.7383Zm-.5796 0c.0043-.2002-.0312-.3996-.1049-.5897-.0619-.1628-.1624-.3129-.2954-.441-.1294-.1212-.2888-.2163-.4665-.2783-.3927-.129-.8274-.129-1.22 0-.1778.062-.3371.1571-.4665.2783-.1348.1273-.2364.2776-.2981.441-.1405.384-.1405.7954 0 1.1793.0623.1632.1638.3134.2981.4411.1296.1205.2889.2147.4665.276.3933.1256.8266.1256 1.22 0 .1776-.0613.3369-.1555.4665-.276.1324-.1284.2329-.2785.2954-.4411.0741-.19.1095-.3894.1049-.5896ZM47.5365 48.7987l.0579.1321c.0221-.0472.0414-.0896.0635-.1321.0211-.0443.045-.0876.0718-.1297l1.4105-2.1909c.0276-.0377.0525-.0613.0801-.0684a.38845.38845 0 0 1 .1159-.0118h.4168v3.5635h-.4941v-2.731a.92884.92884 0 0 1 0-.1226l-1.4188 2.2215c-.018.0333-.0468.0615-.0831.0811-.0362.0197-.0783.03-.1212.0298h-.08c-.043.0005-.0852-.0097-.1215-.0294s-.0651-.048-.0828-.0815l-1.4602-2.2356v2.8606h-.4775v-3.5564h.4168a.38878.38878 0 0 1 .1159.0118c.0342.0145.0615.0387.0773.0684l1.4409 2.1933a.75262.75262 0 0 1 .0718.1273ZM52.8447 48.6217v1.3347h-.5521v-3.5586h1.2311c.2324-.0038.4641.0224.6873.0778.1787.0433.3444.1189.4859.2217.1226.0964.2171.2159.276.349.0652.1452.097.2997.0938.4552.0025.1561-.0323.3109-.1021.4551-.0663.1366-.1683.2584-.2981.3561-.1416.1071-.3081.1875-.4886.2359-.2149.0586-.4397.0865-.6652.0825l-.668-.0094Zm0-.3821h.668c.1451.0016.2895-.0167.4278-.0542.1141-.0328.2193-.085.3092-.1533.0829-.0653.1471-.1459.1877-.2358.0452-.0951.0677-.1969.0662-.2995.0065-.099-.0124-.1979-.0553-.2899-.0429-.0921-.1088-.175-.1931-.2431-.2109-.1407-.4758-.2088-.7425-.191h-.668v1.4668ZM60.2645 49.9613h-.4362c-.0437.0014-.0867-.0103-.1214-.0331-.0313-.0222-.0559-.0505-.0718-.0825l-.3754-.8609h-1.8853l-.3892.8609c-.0143.0315-.0381.0591-.069.0802-.0351.0241-.0792.0367-.1242.0354h-.4362l1.6562-3.5638h.5742l1.6783 3.5638Zm-2.7328-1.3232h1.5569l-.657-1.4505a2.33183 2.33183 0 0 1-.1242-.3349l-.0635.1863c-.0193.0566-.0414.1085-.0607.1509l-.6515 1.4482ZM62.6495 46.414c.033.0155.0614.0373.0828.0637l2.4153 2.6864v-2.7666h.4941v3.5638h-.276c-.0392.001-.0781-.0063-.1132-.0212-.0341-.017-.0641-.0395-.0883-.0661l-2.4125-2.684a.96448.96448 0 0 1 0 .1226v2.6487h-.4941v-3.5638h.2926a.2685.2685 0 0 1 .0993.0165ZM69.7104 48.5438v1.4151h-.5521v-1.4151l-1.5265-2.1463h.4941c.0426-.0021.0847.0087.1187.0307.0301.0229.0553.05.0746.0802l.9551 1.3844c.0386.059.0717.1132.0993.1651s.0497.1014.069.151l.0718-.1533c.0268-.0561.0582-.1105.0939-.1628l.9412-1.3939c.0198-.0278.044-.0532.0718-.0754.0328-.0245.0753-.0371.1187-.0354h.4996l-1.5292 2.1557ZM47.2632 40.417c.2401.0259.483.0472.7287.066 3.7246-1.4235 6.8754-3.7535 9.0587-6.6986 2.1832-2.9451 3.3021-6.3747 3.2166-9.8601l-4.1046-3.5071c.8346 3.7109.4442 7.547-1.1275 11.0791-1.5717 3.5321-4.2627 6.6208-7.7719 8.9207Z"/>
    <path d="m45.7975 40.2539.1104.0189c3.7499-2.2917 6.6089-5.4919 8.2072-9.1867 1.5984-3.6949 1.8625-7.7144.7584-11.5389l-5.8464-4.9951c2.3647 4.1059 3.3165 8.7009 2.7448 13.2508-.5717 4.5499-2.6435 8.8676-5.9744 12.451ZM65.6251 28.0424c-.9933 3.8296-3.4056 7.2834-6.8788 9.8487-1.0144.7533-2.1085 1.4244-3.2683 2.0046 2.8282-.7102 5.4277-1.9659 7.5981-3.6702 2.1704-1.7042 3.8537-3.8116 4.9201-6.1596l-2.3711-2.0235Z"/>
    <path d="m64.6948 27.4784-3.3759-2.8844c-.0645 3.2885-1.1587 6.5023-3.1689 9.3072-2.0101 2.805-4.8629 5.0988-8.2617 6.643h.0166a22.42945 22.42945 0 0 0 2.2662-.1156c3.1764-1.1077 5.9824-2.87 8.1677-5.1297 2.1852-2.2597 3.6818-4.9464 4.356-7.8205ZM46.2861 12.4457 42.2587 9c-3.6003 1.1887-6.6967 3.2784-8.884 5.9955-2.1872 2.7172-3.3635 5.9353-3.3747 9.233.0135 3.644 1.449 7.18 4.0793 10.0484 2.6303 2.8685 6.3052 4.9055 10.4429 5.7887 3.6938-3.8451 5.8564-8.5963 6.1736-13.5633.3172-4.967-1.2275-9.891-4.4097-14.0566ZM74 26.9478c-.0146-4.3233-2.0311-8.466-5.6092-11.5231-3.5781-3.0571-8.4268-4.78-13.4869-4.7925-2.3382-.0021-4.6566.3666-6.8374 1.0872l24.6582 21.0679C73.569 30.925 74.0015 28.945 74 26.9478Z"/>
  </g>
</svg>

<!-- Foster Peters -->
<svg id="fosterpeters" xmlns="http://www.w3.org/2000/svg" width="104px" height="56px" viewBox="0 0 104 56">
  <path fill="#8E8F99" d="M24.0782 21.5179h-.0029c-2.3856 0-4.3196 1.7436-4.3196 3.8945v.0025c0 2.1509 1.934 3.8945 4.3196 3.8945h.0029c2.3856 0 4.3196-1.7436 4.3196-3.8945v-.0025c0-2.1509-1.934-3.8945-4.3196-3.8945ZM55.9614 20.273c-.0068-2.9875-1.3259-5.8509-3.6686-7.9636C49.9501 10.1967 46.7745 9.00678 43.461 9c-3.3144.00543-6.4914 1.1948-8.8354 3.3076-2.3439 2.1129-3.6638 4.977-3.6706 7.9654v16.4742s25.0035-2.5108 25.0064-16.4717v-.0025ZM11 42.1543c.006 2.0787.9243 4.0707 2.5543 5.5408 1.63 1.4701 3.8392 2.2988 6.1447 2.3049 2.305-.0061 4.5137-.8344 6.1436-2.304 1.6299-1.4695 2.5486-3.4609 2.5554-5.5392v-11.463S11 32.4421 11 42.1543Zm8.699 2.0538c-.4506 0-.891-.1204-1.2656-.3461-.3746-.2257-.6666-.5465-.839-.9218-.1724-.3752-.2175-.7882-.1296-1.1866.0879-.3984.3048-.7644.6234-1.0516.3186-.2873.7245-.4829 1.1664-.5621.4419-.0793.8999-.0386 1.3161.1169.4163.1554.772.4187 1.0223.7564.2503.3378.3839.7349.3839 1.1411.0012.2703-.0569.5382-.1709.7883-.114.2501-.2816.4774-.4932.6689-.2117.1916-.4632.3436-.7401.4473-.2769.1036-.5739.157-.8737.157v-.0077ZM35.6089 40.515v4.2656H34.73V40.515h.8789Zm1.6992 1.8222v.6856h-1.9394v-.6856h1.9394Zm.2051-1.8222v.6884h-2.1445v-.6884h2.1445Zm4.0137 2.0332v.2021c0 .3242-.044.6152-.1319.8731-.0879.2578-.2119.4775-.3721.6591-.1601.1797-.3515.3174-.5742.4131-.2207.0957-.4658.1436-.7353.1436-.2676 0-.5127-.0479-.7354-.1436-.2207-.0957-.4121-.2334-.5742-.4131-.1621-.1816-.2881-.4013-.3779-.6591-.0879-.2579-.1319-.5489-.1319-.8731v-.2021c0-.3262.044-.6172.1319-.8731.0879-.2578.2119-.4775.372-.6592.1622-.1816.3536-.3203.5743-.416.2226-.0957.4677-.1435.7353-.1435.2696 0 .5147.0478.7354.1435.2226.0957.414.2344.5742.416.1621.1817.2871.4014.375.6592.0898.2559.1348.5469.1348.8731Zm-.8877.2021v-.208c0-.2266-.0205-.4258-.0616-.5977-.041-.1718-.1015-.3164-.1816-.4336-.0801-.1171-.1777-.205-.293-.2636-.1152-.0606-.247-.0908-.3955-.0908-.1484 0-.2803.0302-.3955.0908-.1133.0586-.2099.1465-.29.2636-.0782.1172-.1377.2618-.1787.4336-.0411.1719-.0616.3711-.0616.5977v.208c0 .2246.0205.4238.0616.5977.041.1718.1015.3173.1816.4365.0801.1172.1777.206.293.2666.1152.0605.247.0908.3955.0908.1484 0 .2803-.0303.3955-.0908.1152-.0606.2119-.1494.29-.2666.0782-.1192.1377-.2647.1787-.4365.0411-.1739.0616-.3731.0616-.5977Zm3.7412.9141c0-.0762-.0117-.1446-.0352-.2051-.0215-.0625-.0625-.1192-.123-.1699-.0606-.0528-.1455-.1045-.2549-.1553-.1094-.0508-.251-.1035-.4248-.1582-.1934-.0625-.377-.1328-.5508-.2109-.1719-.0782-.3242-.169-.457-.2725-.1309-.1055-.2344-.2275-.3106-.3662-.0742-.1387-.1113-.2998-.1113-.4834 0-.1778.0391-.3389.1172-.4834.0781-.1465.1875-.2715.3281-.375.1406-.1055.3066-.1865.4981-.2432.1933-.0566.4052-.0849.6357-.0849.3144 0 .5889.0566.8232.1699.2344.1133.4161.2685.545.4658.1308.1973.1962.4229.1962.6768h-.873c0-.125-.0264-.2344-.0791-.3282-.0508-.0957-.1289-.1709-.2344-.2256-.1035-.0546-.2344-.082-.3926-.082-.1523 0-.2793.0235-.3808.0703-.1016.045-.1777.1065-.2285.1846-.0508.0762-.0762.1621-.0762.2578 0 .0723.0176.1377.0527.1963.0371.0586.0918.1133.1641.1641.0723.0507.1611.0986.2666.1435.1055.0449.2275.0889.3662.1319.2324.0703.4365.1494.6123.2373.1777.0879.3262.1865.4453.2959.1192.1093.209.2334.2696.372.0605.1387.0908.2959.0908.4717 0 .1856-.0362.3516-.1084.4981-.0723.1464-.1768.2705-.3135.372-.1367.1016-.2998.1787-.4893.2315-.1894.0527-.4013.0791-.6357.0791-.2109 0-.4189-.0274-.624-.0821-.2051-.0566-.3916-.1416-.5596-.2548-.166-.1133-.2988-.2579-.3984-.4336-.0996-.1758-.1494-.3838-.1494-.6241h.8818c0 .1329.0205.2452.0615.337.041.0918.0986.166.1729.2226.0761.0567.166.0977.2695.1231.1055.0253.2207.038.3457.038.1523 0 .2773-.0214.375-.0644.0996-.043.1729-.1025.2197-.1787.0489-.0762.0733-.1621.0733-.2578Zm3.3838-3.1494v4.2656h-.876V40.515h.876Zm1.3125 0v.6884h-3.4805v-.6884h3.4805Zm3.3632 3.58v.6856h-2.2705v-.6856h2.2705Zm-1.9834-3.58v4.2656h-.8789V40.515h.8789Zm1.6875 1.7373v.6679h-1.9746v-.6679h1.9746Zm.293-1.7373v.6884h-2.2676v-.6884h2.2676Zm.5156 0h1.5909c.3261 0 .6064.0488.8408.1464.2363.0977.4179.2422.5449.4336.127.1914.1904.4268.1904.7061 0 .2285-.039.4248-.1172.5889-.0761.1621-.1845.2978-.3252.4072-.1386.1074-.3017.1933-.4892.2578l-.2783.1465h-1.3828l-.0059-.6856h1.0283c.1543 0 .2822-.0273.3838-.082.1016-.0547.1777-.1309.2285-.2285.0528-.0977.0791-.211.0791-.3399 0-.1367-.0254-.2548-.0761-.3545-.0508-.0996-.128-.1757-.2315-.2285-.1035-.0527-.2334-.0791-.3896-.0791h-.712v3.5772h-.8789V40.515Zm2.3848 4.2656-.9727-1.9014.9288-.0058.9843 1.8662v.041h-.9404Zm4.6143-1.5205h-1.087v-.6856h1.087c.1679 0 .3046-.0273.4101-.082.1055-.0566.1826-.1348.2315-.2344.0488-.0996.0732-.2119.0732-.3369 0-.1269-.0244-.2451-.0732-.3545-.0489-.1094-.126-.1973-.2315-.2637-.1055-.0664-.2422-.0996-.4101-.0996h-.7823v3.5772h-.8789V40.515h1.6612c.3339 0 .6201.0605.8584.1816.2402.1191.4238.2842.5507.4951.127.2109.1905.4522.1905.7236 0 .2754-.0635.5137-.1905.7149-.1269.2012-.3105.3564-.5507.4658-.2383.1094-.5245.1641-.8584.1641Zm5.0683.8349v.6856h-2.2705v-.6856H65.02Zm-1.9834-3.58v4.2656h-.8789V40.515h.8789Zm1.6875 1.7373v.6679h-1.9746v-.6679h1.9746Zm.293-1.7373v.6884h-2.2676v-.6884h2.2676Zm2.4814 0v4.2656h-.8759V40.515h.8759Zm1.3125 0v.6884h-3.4804v-.6884h3.4804Zm3.3633 3.58v.6856h-2.2705v-.6856h2.2705Zm-1.9834-3.58v4.2656h-.8789V40.515h.8789Zm1.6875 1.7373v.6679h-1.9746v-.6679h1.9746Zm.293-1.7373v.6884h-2.2676v-.6884h2.2676Zm.5156 0h1.5908c.3262 0 .6065.0488.8409.1464.2363.0977.4179.2422.5449.4336.1269.1914.1904.4268.1904.7061 0 .2285-.0391.4248-.1172.5889-.0762.1621-.1846.2978-.3252.4072-.1387.1074-.3017.1933-.4892.2578l-.2784.1465h-1.3828l-.0058-.6856h1.0283c.1543 0 .2822-.0273.3838-.082.1015-.0547.1777-.1309.2285-.2285.0527-.0977.0791-.211.0791-.3399 0-.1367-.0254-.2548-.0762-.3545-.0508-.0996-.1279-.1757-.2314-.2285-.1035-.0527-.2334-.0791-.3897-.0791h-.7119v3.5772h-.8789V40.515Zm2.3848 4.2656-.9727-1.9014.9287-.0058.9844 1.8662v.041h-.9404Zm3.6797-1.1162c0-.0762-.0118-.1446-.0352-.2051-.0215-.0625-.0625-.1192-.123-.1699-.0606-.0528-.1455-.1045-.2549-.1553-.1094-.0508-.251-.1035-.4248-.1582-.1934-.0625-.377-.1328-.5508-.2109-.1719-.0782-.3242-.169-.457-.2725-.1309-.1055-.2344-.2275-.3106-.3662-.0742-.1387-.1113-.2998-.1113-.4834 0-.1778.039-.3389.1172-.4834.0781-.1465.1875-.2715.3281-.375.1406-.1055.3066-.1865.498-.2432.1934-.0566.4053-.0849.6358-.0849.3144 0 .5889.0566.8232.1699.2344.1133.416.2685.545.4658.1308.1973.1962.4229.1962.6768h-.873c0-.125-.0264-.2344-.0791-.3282-.0508-.0957-.1289-.1709-.2344-.2256-.1035-.0546-.2344-.082-.3926-.082-.1523 0-.2793.0235-.3808.0703-.1016.045-.1778.1065-.2285.1846-.0508.0762-.0762.1621-.0762.2578 0 .0723.0176.1377.0527.1963.0371.0586.0918.1133.1641.1641.0723.0507.1611.0986.2666.1435.1055.0449.2275.0889.3662.1319.2324.0703.4365.1494.6123.2373.1777.0879.3262.1865.4453.2959.1192.1093.209.2334.2696.372.0605.1387.0908.2959.0908.4717 0 .1856-.0362.3516-.1084.4981-.0723.1464-.1768.2705-.3135.372-.1367.1016-.2998.1787-.4893.2315-.1894.0527-.4013.0791-.6357.0791-.2109 0-.4189-.0274-.624-.0821-.2051-.0566-.3916-.1416-.5596-.2548-.166-.1133-.2988-.2579-.3984-.4336-.0996-.1758-.1494-.3838-.1494-.6241h.8818c0 .1329.0205.2452.0615.337.041.0918.0986.166.1729.2226.0761.0567.166.0977.2695.1231.1055.0253.2207.038.3457.038.1523 0 .2773-.0214.375-.0644.0996-.043.1728-.1025.2197-.1787.0489-.0762.0733-.1621.0733-.2578Z"/>
</svg>

<!-- Brand -->
<svg id="brand" xmlns="http://www.w3.org/2000/svg" width="104px" height="56px" viewBox="0 0 104 56">
  <g fill="#8E8F99">
    <path d="M26.7919 44.373c.2455.2735.3762.6161.3694.9677.0125.2293-.0325.4582-.1315.6698-.0991.2116-.2498.4004-.4409.5525-.4769.3242-1.0676.4827-1.6639.4463H22v-6.1324h2.8651c.5656-.0338 1.1267.1102 1.5874.4075.185.1394.3315.3156.428.5147.0964.1991.1401.4157.1277.6326.0168.3383-.1012.6709-.3328.9377-.2223.2437-.5295.4126-.8718.4794.388.0637.7383.2495.9883.5242Zm-3.4309-.9257h1.2246c.2783.0186.5548-.0538.7787-.2037.0919-.075.1635-.1681.2091-.272.0456-.1039.064-.2158.0538-.3271.0086-.111-.0102-.2223-.055-.3259-.0449-.1036-.1148-.1969-.2046-.2733-.2306-.1542-.5156-.2276-.8019-.2067H23.361v1.6087Zm2.1231 2.3517c.0983-.0768.1755-.1729.2258-.281.0502-.1081.072-.2252.0637-.3421.0075-.1183-.0153-.2365-.0667-.3456-.0513-.1091-.1298-.2061-.2295-.2835-.2395-.1599-.5342-.2384-.8319-.2217H23.361v1.6866h1.3012c.2928.0152.5827-.0598.8219-.2127ZM32.6487 47.0093l-1.594-2.3966h-.599v2.3966h-1.371v-6.1324h2.5956c.6543-.0411 1.3011.1455 1.807.5213.3628.3328.5816.7714.617 1.2366.0354.4653-.115.9266-.424 1.3009-.3203.3302-.7577.5504-1.2379.6231l1.6971 2.4505h-1.4908Zm-2.193-3.2324h1.1215c.7786 0 1.168-.3096 1.168-.9287.0079-.1265-.0134-.253-.0627-.3716-.0492-.1186-.1254-.2267-.2235-.3175-.2461-.1842-.563-.2736-.8818-.2486h-1.1348l.0133 1.8664ZM40.1426 45.7752h-2.732l-.4826 1.2342h-1.4375l2.5091-6.0635h1.554l2.4991 6.0635h-1.4376l-.4725-1.2342Zm-.366-.9287-.9984-2.5884-.9983 2.5884h1.9967ZM49.5234 47.0094h-1.361l-3.0515-4.1702v4.1702h-1.3577V40.877h1.3577l3.0515 4.1941V40.877h1.361v6.1324ZM57.2903 45.5415c-.2814.463-.7102.8396-1.2313 1.0814-.5924.2694-1.2499.4022-1.9134.3865H51.723V40.877h2.4226c.6623-.0156 1.319.114 1.9134.3775.521.2363.9502.6092 1.2313 1.0695.2801.4987.4261 1.0498.4261 1.6087s-.146 1.11-.4261 1.6088Zm-1.5574-.1468c.3884-.4074.602-.9266.602-1.4635s-.2136-1.056-.602-1.4634c-.4695-.369-1.0818-.5564-1.7038-.5213h-.945v3.9694h.945c.622.0351 1.2343-.1522 1.7038-.5212ZM40.9945 6.76672S58.5614 12.7374 58.1887 21.3773v14.6135s-17.5536-5.9736-17.1875-14.6135l-.0067-14.61058ZM73.8389 32.5694c3.3176-2.0555 7.1552-3.3286 11.1611-3.7028V24.292c-4.6158 1.6015-8.5314 4.5055-11.1611 8.2774Z"/>
    <path d="M71.8456 33.9478c2.7155-4.9225 7.423-8.721 13.1544-10.6142V10.1521s-25.0177 8.5051-24.4886 20.8088v20.8059s1.1148-.3805 2.8685-1.0935c0-.665 0-1.3361.0799-2.0102.5178-5.712 3.5341-11.005 8.3858-14.7153Z"/>
    <path d="M69.4663 41.6769c.1315-1.4429.4247-2.8702.8752-4.26-3.021 3.2042-4.8505 7.1802-5.2311 11.369-.0366.3955-.0566.7909-.0666 1.1984 1.421-.6142 3.0748-1.3811 4.8119-2.2828-.4433-1.9818-.5744-4.0099-.3894-6.0246ZM70.4612 41.7519c-.1665 1.8227-.0624 3.6573.3095 5.4553 6.8351-3.6818 14.5154-9.3709 14.2193-16.2462v-.5992c-4.8834.4919-9.4523 2.4138-13.0047 5.4703-.8317 1.8942-1.3454 3.8893-1.5241 5.9198Z"/>
  </g>
</svg>

<!-- Company-tag-6 -->
<svg id="companytag6" xmlns="http://www.w3.org/2000/svg" width="104px" height="56px" viewBox="0 0 104 56">
  <g fill="#8E8F99">
    <path d="M53.5293 27.4433c-.444-.5909-.6564-1.2891-.606-1.992v-2.8881c0-.8853.2009-1.5581.6026-2.0184.4018-.4603 1.0918-.6894 2.0701-.6875.9193 0 1.5719.1959 1.9577.5876.4209.4998.6257 1.1111.5788 1.7276v.6787H56.488v-.6875a3.49728 3.49728 0 0 0-.0476-.6728c-.0237-.1523-.1065-.2932-.2349-.3996-.1689-.1147-.3816-.1703-.5959-.1557-.2253-.0145-.4487.0441-.6264.1645-.1433.1179-.2388.2724-.2724.4407a3.3415 3.3415 0 0 0-.0647.7139v3.5051c-.0259.3381.0466.6765.2111.9842.0818.1042.1954.1867.3282.2386.1328.0518.2796.071.4242.0552.2107.015.4197-.042.5822-.1586.134-.1148.2202-.2645.2452-.426.0384-.2326.0555-.4674.051-.7022v-.711h1.6445v.6493c.0462.6426-.1536 1.2806-.5686 1.8157-.3779.4289-1.0214.6434-1.9679.6434-.9465 0-1.6615-.2291-2.0667-.7051ZM60.3763 27.4727c-.4153-.4495-.623-1.1047-.623-1.9714v-3.038c0-.8579.2077-1.5072.623-1.9479.4154-.4407 1.11-.66 2.0837-.6581.9669 0 1.6581.2194 2.0734.6581.4154.4407.6265 1.09.6265 1.9479v3.038c0 .8579-.2111 1.516-.6333 1.9684-.4222.4525-1.1099.6787-2.0666.6787-.9567 0-1.6649-.2291-2.0837-.6757Zm2.8497-.7287c.1488-.2815.2165-.59.1975-.899v-3.7195c.0191-.3031-.0475-.6056-.1941-.8814-.0834-.1064-.1998-.1903-.3358-.2422-.1361-.052-.2863-.0699-.4336-.0516-.1477-.0178-.2983.0003-.4348.0522s-.2535.1355-.3381.2416c-.1497.275-.2176.578-.1974.8814v3.7371c-.0207.3092.0471.6179.1974.8991.0959.0947.2142.1707.3469.2228.1327.052.2768.0789.4226.0789.1458 0 .2899-.0269.4226-.0789.1327-.0521.251-.1281.3468-.2228v-.0177ZM67.1378 19.946h1.7705l1.3312 5.6052 1.3619-5.6052h1.7228l.1736 8.0905h-1.2734l-.1361-5.6228-1.3143 5.6228h-1.0214l-1.3619-5.6434-.1259 5.6434h-1.287l.16-8.0905ZM75.4829 19.946h2.7577c1.5889 0 2.3833.7658 2.3833 2.2973 0 1.4669-.8364 2.1994-2.5092 2.1974h-.9397v3.5958h-1.7023l.0102-8.0905Zm2.356 3.4577c.1682.0184.339.0051.5007-.039.1616-.0441.3103-.118.4356-.2166.1952-.2732.2813-.5941.2451-.9136.0089-.2468-.0185-.4936-.0817-.7344-.0243-.0805-.0669-.1559-.1253-.222-.0585-.0661-.1316-.1214-.2152-.1629-.2363-.0978-.4975-.1422-.7592-.1292h-.6605v2.4177h.6605ZM83.0787 19.946h1.8283l1.876 8.0905h-1.5866l-.3711-1.8655h-1.6308l-.3813 1.8655h-1.6104l1.8759-8.0905Zm1.5628 5.2879-.6367-3.396-.6367 3.396h1.2734ZM88.2981 19.946h1.1916l2.2812 4.6152V19.946h1.4129v8.0905h-1.1337l-2.2948-4.8179v4.8179h-1.4606l.0034-8.0905ZM96.4932 24.9516l-1.8964-4.9943h1.5968l1.1576 3.2081 1.0861-3.2081H100l-1.8726 4.9943v3.0847h-1.6342v-3.0847ZM56.1579 31.5736v.4231h-1.3891v3.2875h-.5822v-3.2875h-1.396v-.4231h3.3673ZM60.5123 35.2844h-.4494c-.0456.0025-.0907-.0101-.126-.0352-.034-.0215-.06-.0511-.0749-.0852l-.4017-.8813h-1.9271l-.4018.8813c-.0114.0369-.0323.071-.0612.0999-.0357.0246-.0805.0371-.126.0352h-.4494l1.7023-3.7104h.5924l1.7228 3.6957Zm-2.8191-1.3778h1.6071l-.681-1.51a2.70326 2.70326 0 0 1-.126-.3496c-.0238.0705-.0442.1381-.0647.1969l-.0612.1557-.6742 1.507ZM63.4472 34.9202c.1066.0048.2134.0048.32 0a1.9257 1.9257 0 0 0 .2724-.0441c.0834-.0177.1653-.0402.2452-.0676.0749-.0264.1498-.0587.2281-.0911v-.8344h-.681a.14232.14232 0 0 1-.0495-.0064.12803.12803 0 0 1-.0424-.023.08636.08636 0 0 1-.0259-.0304.0746.0746 0 0 1-.0081-.0372v-.285h1.321v1.4221c-.1078.0666-.2217.1255-.3405.1763-.1214.0517-.2479.094-.3779.1263a3.05369 3.05369 0 0 1-.4256.0764c-.1651.0158-.331.0237-.4971.0235-.2936.0022-.585-.0447-.858-.1381-.2549-.0884-.4865-.2203-.6809-.3878-.1896-.1692-.3388-.3688-.4392-.5876-.1073-.246-.1604-.5071-.1566-.7698-.0036-.2645.0483-.5272.1532-.7757.0979-.2199.2474-.42.4392-.5876.1943-.167.426-.2979.6809-.3849.2916-.0947.601-.1415.9125-.1381a3.4149 3.4149 0 0 1 .4732.0323c.1384.0194.2742.0509.4052.094.1191.0386.2332.0878.3405.1469.1043.058.2034.1228.2962.1939l-.1634.2292c-.0128.0209-.0319.0385-.0553.0509-.0233.0124-.0501.0192-.0775.0196-.0377-.001-.0743-.0112-.1056-.0294-.051-.0235-.1055-.0528-.1668-.0881a1.51033 1.51033 0 0 0-.2281-.0999 2.13724 2.13724 0 0 0-.3133-.0823 2.62531 2.62531 0 0 0-.4324-.0323c-.2246-.0021-.4476.0328-.6571.1028-.1894.0656-.3602.1659-.5004.2939-.1411.1334-.2489.2904-.3167.4613-.1521.4018-.1521.835 0 1.2369.0745.1745.1905.3337.3405.4672.1396.1273.3091.2275.4971.2938.2165.0641.4459.0892.6741.0735ZM68.8744 34.8611h1.859v.4231h-2.4276v-3.7106h.5822l-.0136 3.2875ZM72.6672 35.2842h-.5822v-3.7106h.5822v3.7106ZM74.8325 31.5913c.0346.017.0648.04.0886.0676l2.4887 2.797a.8839.8839 0 0 1 0-.1322V31.559h.5073v3.7255h-.2928c-.0433.003-.0869-.0041-.1259-.0206-.0354-.0185-.0665-.0424-.092-.0705l-2.4853-2.7941V35.2845h-.4869v-3.7108h.303c.0329 0 .0653.006.0953.0176ZM82.2037 31.5736v.4084h-2.0632v1.2251h1.6717v.3937h-1.6717v1.2663h2.0632v.4083h-2.6624v-3.7018h2.6624ZM21.1952 8.65871 47.047 14.9927v22.1956l-25.8518-6.3311V8.65871Zm-1.6581-1.89199V31.9354l29.1646 7.1478V13.9175L19.5371 6.76672Z"/>
    <path d="M35.168 50.7667 6 43.6129v-25.166l29.168 7.1508v25.169Z"/>
    <path d="m20.0205 8.37371 25.5147 6.25459-10.8507 9.3658-25.51814-6.2576L20.0205 8.37371Zm-.4835-1.60699L6 18.4475l29.168 7.1506 13.5336-11.6807L19.537 6.76672ZM36.8091 49.3509l11.8925-10.2646-11.8925-2.9172v13.1818Z"/>
  </g>
</svg>

</svg>
